# MagicaVoxel @ Ephtracy

# group
o 

# material
mtllib BUTTY_FOOT.mtl
usemtl palette

# normals
vn -1 0 0
vn 1 0 0
vn 0 0 1
vn 0 0 -1
vn 0 -1 0
vn 0 1 0

# texcoords
vt 0.865234 0.5
vt 0.958984 0.5
vt 0.978516 0.5

# verts
v -0.8 0.3 0.3
v -0.8 0.3 -0.2
v -0.8 0.4 0.3
v -0.8 0.4 0.2
v -0.8 0.4 0.1
v -0.8 0.4 -0.1
v -0.8 0.5 0.3
v -0.8 0.5 0.2
v -0.8 0.5 0.1
v -0.8 0.5 -0.1
v -0.8 0.5 -0.2
v -0.5 0.3 0.3
v -0.5 0.3 -0.2
v -0.5 0.4 0.3
v -0.5 0.4 0.2
v -0.5 0.4 0.1
v -0.5 0.4 -0.1
v -0.5 0.5 0.3
v -0.5 0.5 0.2
v -0.5 0.5 0.1
v -0.5 0.5 -0.1
v -0.5 0.5 -0.2
v -0.8 0.3 0.3
v -0.8 0.4 0.3
v -0.8 0.5 0.3
v -0.5 0.3 0.3
v -0.5 0.4 0.3
v -0.5 0.5 0.3
v -0.8 0.3 -0.2
v -0.8 0.5 -0.2
v -0.5 0.3 -0.2
v -0.5 0.5 -0.2
v -0.8 0.3 0.3
v -0.5 0.3 0.3
v -0.8 0.3 -0.2
v -0.5 0.3 -0.2
v -0.8 0.5 0.3
v -0.5 0.5 0.3
v -0.8 0.5 0.2
v -0.5 0.5 0.2
v -0.8 0.5 0.1
v -0.7 0.5 0.1
v -0.6 0.5 0.1
v -0.5 0.5 0.1
v -0.8 0.5 -0.1
v -0.7 0.5 -0.1
v -0.6 0.5 -0.1
v -0.5 0.5 -0.1
v -0.8 0.5 -0.2
v -0.5 0.5 -0.2

# faces
f 3/1/1 2/1/1 1/1/1
f 4/1/1 2/1/1 3/1/1
f 5/1/1 2/1/1 4/1/1
f 6/1/1 2/1/1 5/1/1
f 7/2/1 4/2/1 3/2/1
f 8/1/1 5/1/1 4/1/1
f 8/2/1 4/2/1 7/2/1
f 9/2/1 6/2/1 5/2/1
f 9/1/1 5/1/1 8/1/1
f 10/1/1 2/1/1 6/1/1
f 10/2/1 6/2/1 9/2/1
f 11/1/1 2/1/1 10/1/1
f 12/1/2 13/1/2 14/1/2
f 14/1/2 13/1/2 15/1/2
f 15/1/2 13/1/2 16/1/2
f 16/1/2 13/1/2 17/1/2
f 14/2/2 15/2/2 18/2/2
f 15/1/2 16/1/2 19/1/2
f 18/2/2 15/2/2 19/2/2
f 16/2/2 17/2/2 20/2/2
f 19/1/2 16/1/2 20/1/2
f 17/1/2 13/1/2 21/1/2
f 20/2/2 17/2/2 21/2/2
f 21/1/2 13/1/2 22/1/2
f 26/1/3 24/1/3 23/1/3
f 27/2/3 25/2/3 24/2/3
f 27/1/3 24/1/3 26/1/3
f 28/2/3 25/2/3 27/2/3
f 29/1/4 30/1/4 31/1/4
f 31/1/4 30/1/4 32/1/4
f 35/1/5 34/1/5 33/1/5
f 36/1/5 34/1/5 35/1/5
f 37/2/6 38/2/6 39/2/6
f 39/2/6 38/2/6 40/2/6
f 39/1/6 40/1/6 41/1/6
f 41/1/6 40/1/6 42/1/6
f 42/1/6 40/1/6 43/1/6
f 43/1/6 40/1/6 44/1/6
f 41/2/6 42/2/6 45/2/6
f 42/3/6 43/3/6 46/3/6
f 45/2/6 42/2/6 46/2/6
f 43/2/6 44/2/6 47/2/6
f 46/3/6 43/3/6 47/3/6
f 47/2/6 44/2/6 48/2/6
f 45/1/6 46/1/6 49/1/6
f 46/1/6 47/1/6 49/1/6
f 47/1/6 48/1/6 49/1/6
f 49/1/6 48/1/6 50/1/6
