# Blender v2.91.2 OBJ File: 'CASTLETRACK.blend'
# www.blender.org
mtllib ramps.mtl
o Cube.001_Cube.003
v 9.953426 2.013520 -5.045133
v 9.950030 1.033328 -5.045555
v 9.573339 1.043756 -2.016205
v 9.767820 1.033328 -3.580370
v 11.321974 2.008705 -4.874940
v 11.318578 1.028513 -4.875362
v 10.941886 1.038941 -1.846013
v 11.136368 1.028513 -3.410178
vt 0.375000 0.000000
vt 0.625000 0.000000
vt 0.625000 0.250000
vt 0.375000 0.250000
vt 0.625000 0.500000
vt 0.375000 0.500000
vt 0.625000 0.750000
vt 0.375000 0.750000
vt 0.625000 1.000000
vt 0.375000 1.000000
vt 0.125000 0.500000
vt 0.125000 0.750000
vt 0.875000 0.500000
vt 0.875000 0.750000
vn -0.9923 0.0035 -0.1234
vn -0.0043 -1.0000 0.0061
vn 0.9923 -0.0035 0.1234
vn 0.1234 -0.0000 -0.9924
vn -0.0341 0.9531 0.3009
vn -0.0035 -1.0000 -0.0004
usemtl None
s off
f 1/1/1 2/2/1 4/3/1 3/4/1
f 3/4/2 4/3/2 8/5/2 7/6/2
f 7/6/3 8/5/3 6/7/3 5/8/3
f 5/8/4 6/7/4 2/9/4 1/10/4
f 3/11/5 7/6/5 5/8/5 1/12/5
f 8/5/6 4/13/6 2/14/6 6/7/6
o Cube.002_Cube.004
v 11.683070 1.954008 -8.837376
v 11.686490 0.973816 -8.837246
v 11.802248 0.984244 -11.887730
v 11.742496 0.973816 -10.312654
v 10.304974 1.949192 -8.889687
v 10.308393 0.969000 -8.889557
v 10.424150 0.979428 -11.940041
v 10.364399 0.969000 -10.364964
vt 0.375000 0.000000
vt 0.625000 0.000000
vt 0.625000 0.250000
vt 0.375000 0.250000
vt 0.625000 0.500000
vt 0.375000 0.500000
vt 0.625000 0.750000
vt 0.375000 0.750000
vt 0.625000 1.000000
vt 0.375000 1.000000
vt 0.125000 0.500000
vt 0.125000 0.750000
vt 0.875000 0.500000
vt 0.875000 0.750000
vn 0.9993 0.0035 0.0379
vn 0.0037 -1.0000 -0.0065
vn -0.9993 -0.0035 -0.0379
vn -0.0379 -0.0000 0.9993
vn 0.0082 0.9531 -0.3027
vn 0.0035 -1.0000 0.0001
usemtl None
s off
f 9/15/7 10/16/7 12/17/7 11/18/7
f 11/18/8 12/17/8 16/19/8 15/20/8
f 15/20/9 16/19/9 14/21/9 13/22/9
f 13/22/10 14/21/10 10/23/10 9/24/10
f 11/25/11 15/20/11 13/22/11 9/26/11
f 16/19/12 12/27/12 10/28/12 14/21/12
