# MagicaVoxel @ Ephtracy

# group
o 

# material
mtllib JAMIE_BODY.mtl
usemtl palette

# normals
vn -1 0 0
vn 1 0 0
vn 0 0 1
vn 0 0 -1
vn 0 -1 0
vn 0 1 0

# texcoords
vt 0.470703 0.5
vt 0.474609 0.5
vt 0.958984 0.5

# verts
v -0.5 1.8 0.2
v -0.5 1.8 -0.2
v -0.5 2.8 0.2
v -0.5 2.8 -0.2
v -0.4 2.7 -0.2
v -0.4 2.7 -0.4
v -0.4 2.8 -0.2
v -0.4 2.8 -0.4
v -0.3 2.6 -0.2
v -0.3 2.6 -0.4
v -0.3 2.7 -0.2
v -0.3 2.7 -0.4
v -0.2 2.5 -0.2
v -0.2 2.5 -0.3
v -0.2 2.6 -0.2
v -0.2 2.6 -0.3
v 0.2 2.5 -0.2
v 0.2 2.5 -0.3
v 0.2 2.6 -0.2
v 0.2 2.6 -0.3
v 0.3 2.6 -0.2
v 0.3 2.6 -0.4
v 0.3 2.7 -0.2
v 0.3 2.7 -0.4
v 0.4 2.7 -0.2
v 0.4 2.7 -0.4
v 0.4 2.8 -0.2
v 0.4 2.8 -0.4
v 0.5 1.8 0.2
v 0.5 1.8 -0.2
v 0.5 2.8 0.2
v 0.5 2.8 -0.2
v -0.5 1.8 0.2
v -0.5 2.8 0.2
v -0.4 1.9 0.2
v -0.4 2.2 0.2
v -0.3 1.9 0.2
v -0.3 2.2 0.2
v -0.3 2.7 0.2
v -0.3 2.8 0.2
v -0.2 2.6 0.2
v -0.2 2.7 0.2
v 0.2 2.6 0.2
v 0.2 2.7 0.2
v 0.3 1.9 0.2
v 0.3 2.2 0.2
v 0.3 2.7 0.2
v 0.3 2.8 0.2
v 0.4 1.9 0.2
v 0.4 2.2 0.2
v 0.5 1.8 0.2
v 0.5 2.8 0.2
v -0.5 1.8 -0.2
v -0.5 2.8 -0.2
v -0.4 2.7 -0.2
v -0.4 2.8 -0.2
v -0.3 2.6 -0.2
v -0.3 2.7 -0.2
v -0.2 2.5 -0.2
v -0.2 2.6 -0.2
v 0.2 2.5 -0.2
v 0.2 2.6 -0.2
v 0.3 2.6 -0.2
v 0.3 2.7 -0.2
v 0.4 2.7 -0.2
v 0.4 2.8 -0.2
v 0.5 1.8 -0.2
v 0.5 2.8 -0.2
v -0.2 2.5 -0.3
v -0.2 2.6 -0.3
v 0.2 2.5 -0.3
v 0.2 2.6 -0.3
v -0.4 2.7 -0.4
v -0.4 2.8 -0.4
v -0.3 2.6 -0.4
v -0.3 2.7 -0.4
v 0.3 2.6 -0.4
v 0.3 2.7 -0.4
v 0.4 2.7 -0.4
v 0.4 2.8 -0.4
v -0.5 1.8 0.2
v 0.5 1.8 0.2
v -0.5 1.8 -0.2
v 0.5 1.8 -0.2
v -0.2 2.5 -0.2
v 0.2 2.5 -0.2
v -0.2 2.5 -0.3
v 0.2 2.5 -0.3
v -0.3 2.6 -0.2
v -0.2 2.6 -0.2
v 0.2 2.6 -0.2
v 0.3 2.6 -0.2
v -0.2 2.6 -0.3
v 0.2 2.6 -0.3
v -0.3 2.6 -0.4
v 0.3 2.6 -0.4
v -0.4 2.7 -0.2
v -0.3 2.7 -0.2
v 0.3 2.7 -0.2
v 0.4 2.7 -0.2
v -0.4 2.7 -0.4
v -0.3 2.7 -0.4
v 0.3 2.7 -0.4
v 0.4 2.7 -0.4
v -0.5 2.8 0.2
v -0.3 2.8 0.2
v 0.3 2.8 0.2
v 0.5 2.8 0.2
v -0.3 2.8 -0.1
v 0.3 2.8 -0.1
v -0.5 2.8 -0.2
v -0.4 2.8 -0.2
v 0.4 2.8 -0.2
v 0.5 2.8 -0.2
v -0.3 2.8 -0.3
v 0.3 2.8 -0.3
v -0.4 2.8 -0.4
v 0.4 2.8 -0.4

# faces
f 3/1/1 2/1/1 1/1/1
f 4/1/1 2/1/1 3/1/1
f 7/1/1 6/1/1 5/1/1
f 8/1/1 6/1/1 7/1/1
f 11/1/1 10/1/1 9/1/1
f 12/1/1 10/1/1 11/1/1
f 15/1/1 14/1/1 13/1/1
f 16/1/1 14/1/1 15/1/1
f 17/1/2 18/1/2 19/1/2
f 19/1/2 18/1/2 20/1/2
f 21/1/2 22/1/2 23/1/2
f 23/1/2 22/1/2 24/1/2
f 25/1/2 26/1/2 27/1/2
f 27/1/2 26/1/2 28/1/2
f 29/1/2 30/1/2 31/1/2
f 31/1/2 30/1/2 32/1/2
f 35/1/3 34/1/3 33/1/3
f 36/1/3 34/1/3 35/1/3
f 37/1/3 35/1/3 33/1/3
f 37/2/3 36/2/3 35/2/3
f 38/1/3 34/1/3 36/1/3
f 38/2/3 36/2/3 37/2/3
f 39/1/3 34/1/3 38/1/3
f 40/1/3 34/1/3 39/1/3
f 41/1/3 38/1/3 37/1/3
f 41/1/3 39/1/3 38/1/3
f 42/3/3 40/3/3 39/3/3
f 42/1/3 39/1/3 41/1/3
f 43/1/3 41/1/3 37/1/3
f 43/3/3 42/3/3 41/3/3
f 44/3/3 40/3/3 42/3/3
f 44/3/3 42/3/3 43/3/3
f 45/1/3 37/1/3 33/1/3
f 45/1/3 43/1/3 37/1/3
f 45/1/3 44/1/3 43/1/3
f 46/1/3 44/1/3 45/1/3
f 47/3/3 40/3/3 44/3/3
f 47/1/3 44/1/3 46/1/3
f 48/3/3 40/3/3 47/3/3
f 49/2/3 46/2/3 45/2/3
f 49/1/3 45/1/3 33/1/3
f 50/1/3 48/1/3 47/1/3
f 50/2/3 46/2/3 49/2/3
f 50/1/3 47/1/3 46/1/3
f 51/1/3 49/1/3 33/1/3
f 51/1/3 50/1/3 49/1/3
f 52/1/3 48/1/3 50/1/3
f 52/1/3 50/1/3 51/1/3
f 53/1/4 54/1/4 55/1/4
f 55/1/4 54/1/4 56/1/4
f 53/1/4 55/1/4 57/1/4
f 57/1/4 55/1/4 58/1/4
f 53/1/4 57/1/4 59/1/4
f 59/1/4 57/1/4 60/1/4
f 53/1/4 59/1/4 61/1/4
f 61/1/4 62/1/4 63/1/4
f 63/1/4 64/1/4 65/1/4
f 63/1/4 65/1/4 67/1/4
f 65/1/4 66/1/4 67/1/4
f 53/1/4 61/1/4 67/1/4
f 61/1/4 63/1/4 67/1/4
f 67/1/4 66/1/4 68/1/4
f 69/1/4 70/1/4 71/1/4
f 71/1/4 70/1/4 72/1/4
f 73/1/4 74/1/4 76/1/4
f 75/1/4 76/1/4 77/1/4
f 76/1/4 74/1/4 78/1/4
f 77/1/4 76/1/4 78/1/4
f 78/1/4 74/1/4 79/1/4
f 79/1/4 74/1/4 80/1/4
f 83/1/5 82/1/5 81/1/5
f 84/1/5 82/1/5 83/1/5
f 87/1/5 86/1/5 85/1/5
f 88/1/5 86/1/5 87/1/5
f 93/1/5 90/1/5 89/1/5
f 94/1/5 92/1/5 91/1/5
f 95/1/5 93/1/5 89/1/5
f 95/1/5 94/1/5 93/1/5
f 96/1/5 92/1/5 94/1/5
f 96/1/5 94/1/5 95/1/5
f 101/1/5 98/1/5 97/1/5
f 102/1/5 98/1/5 101/1/5
f 103/1/5 100/1/5 99/1/5
f 104/1/5 100/1/5 103/1/5
f 105/1/6 106/1/6 109/1/6
f 106/3/6 107/3/6 109/3/6
f 107/1/6 108/1/6 110/1/6
f 109/3/6 107/3/6 110/3/6
f 105/1/6 109/1/6 111/1/6
f 111/1/6 109/1/6 112/1/6
f 110/1/6 108/1/6 113/1/6
f 113/1/6 108/1/6 114/1/6
f 112/1/6 109/1/6 115/1/6
f 109/2/6 110/2/6 115/2/6
f 110/1/6 113/1/6 116/1/6
f 115/2/6 110/2/6 116/2/6
f 112/1/6 115/1/6 117/1/6
f 115/1/6 116/1/6 117/1/6
f 116/1/6 113/1/6 118/1/6
f 117/1/6 116/1/6 118/1/6
