# MagicaVoxel @ Ephtracy

# group
o 

# material
mtllib BODY_TOP.mtl
usemtl palette

# normals
vn -1 0 0
vn 1 0 0
vn 0 0 1
vn 0 0 -1
vn 0 -1 0
vn 0 1 0

# texcoords
vt 0.849609 0.5
vt 0.962891 0.5
vt 0.990234 0.5
vt 0.994141 0.5

# verts
v -0.5 1.8 0.2
v -0.5 1.8 -0.2
v -0.5 2.8 0.2
v -0.5 2.8 -0.2
v 0.5 1.8 0.2
v 0.5 1.8 -0.2
v 0.5 2.8 0.2
v 0.5 2.8 -0.2
v -0.5 1.8 0.2
v -0.5 2.8 0.2
v -0.4 2.3 0.2
v -0.4 2.4 0.2
v -0.4 2.6 0.2
v -0.3 2.5 0.2
v -0.3 2.6 0.2
v -0.3 2.7 0.2
v -0.3 2.8 0.2
v -0.2 2.3 0.2
v -0.2 2.4 0.2
v -0.2 2.5 0.2
v -0.2 2.6 0.2
v -0.2 2.7 0.2
v -0.1 2.1 0.2
v -0.1 2.6 0.2
v 0.1 2.1 0.2
v 0.1 2.6 0.2
v 0.2 2.1 0.2
v 0.2 2.6 0.2
v 0.2 2.7 0.2
v 0.3 2.6 0.2
v 0.3 2.7 0.2
v 0.3 2.8 0.2
v 0.4 2.7 0.2
v 0.4 2.8 0.2
v 0.5 1.8 0.2
v 0.5 2.8 0.2
v -0.5 1.8 -0.2
v -0.5 2.8 -0.2
v 0.5 1.8 -0.2
v 0.5 2.8 -0.2
v -0.5 1.8 0.2
v 0.5 1.8 0.2
v -0.5 1.8 -0.2
v 0.5 1.8 -0.2
v -0.5 2.8 0.2
v -0.3 2.8 0.2
v 0.3 2.8 0.2
v 0.4 2.8 0.2
v 0.5 2.8 0.2
v -0.3 2.8 0.0999999
v 0.3 2.8 0.0999999
v 0.4 2.8 0.0999999
v -0.5 2.8 -0.2
v 0.5 2.8 -0.2

# faces
f 3/4/1 2/4/1 1/4/1
f 4/4/1 2/4/1 3/4/1
f 5/4/2 6/4/2 7/4/2
f 7/4/2 6/4/2 8/4/2
f 11/4/3 10/4/3 9/4/3
f 12/4/3 10/4/3 11/4/3
f 13/4/3 10/4/3 12/4/3
f 14/1/3 13/1/3 12/1/3
f 15/4/3 10/4/3 13/4/3
f 15/1/3 13/1/3 14/1/3
f 16/4/3 10/4/3 15/4/3
f 17/4/3 10/4/3 16/4/3
f 18/4/3 11/4/3 9/4/3
f 18/3/3 12/3/3 11/3/3
f 19/1/3 14/1/3 12/1/3
f 19/3/3 12/3/3 18/3/3
f 20/4/3 15/4/3 14/4/3
f 20/1/3 14/1/3 19/1/3
f 20/4/3 16/4/3 15/4/3
f 21/4/3 16/4/3 20/4/3
f 22/2/3 17/2/3 16/2/3
f 22/4/3 16/4/3 21/4/3
f 23/4/3 21/4/3 20/4/3
f 23/4/3 18/4/3 9/4/3
f 23/4/3 19/4/3 18/4/3
f 23/4/3 20/4/3 19/4/3
f 24/2/3 22/2/3 21/2/3
f 24/4/3 21/4/3 23/4/3
f 25/4/3 23/4/3 9/4/3
f 25/2/3 24/2/3 23/2/3
f 26/2/3 22/2/3 24/2/3
f 26/2/3 24/2/3 25/2/3
f 27/4/3 25/4/3 9/4/3
f 27/3/3 26/3/3 25/3/3
f 28/2/3 22/2/3 26/2/3
f 28/3/3 26/3/3 27/3/3
f 29/2/3 17/2/3 22/2/3
f 29/2/3 22/2/3 28/2/3
f 30/4/3 28/4/3 27/4/3
f 30/3/3 29/3/3 28/3/3
f 31/2/3 17/2/3 29/2/3
f 31/3/3 29/3/3 30/3/3
f 32/2/3 17/2/3 31/2/3
f 33/4/3 31/4/3 30/4/3
f 33/3/3 32/3/3 31/3/3
f 34/3/3 32/3/3 33/3/3
f 35/4/3 30/4/3 27/4/3
f 35/4/3 27/4/3 9/4/3
f 35/4/3 34/4/3 33/4/3
f 35/4/3 33/4/3 30/4/3
f 36/4/3 34/4/3 35/4/3
f 37/4/4 38/4/4 39/4/4
f 39/4/4 38/4/4 40/4/4
f 43/4/5 42/4/5 41/4/5
f 44/4/5 42/4/5 43/4/5
f 45/4/6 46/4/6 50/4/6
f 46/2/6 47/2/6 50/2/6
f 47/3/6 48/3/6 51/3/6
f 50/2/6 47/2/6 51/2/6
f 48/4/6 49/4/6 52/4/6
f 51/3/6 48/3/6 52/3/6
f 50/4/6 51/4/6 53/4/6
f 45/4/6 50/4/6 53/4/6
f 51/4/6 52/4/6 53/4/6
f 52/4/6 49/4/6 54/4/6
f 53/4/6 52/4/6 54/4/6
