# Blender 4.0.2
# www.blender.org
mtllib CrackRounded.mtl
o Cube
v -0.900000 -1.000000 0.900000
v -0.900000 -0.900000 1.000000
v -1.000000 -0.900000 0.900000
v -0.900000 0.900000 1.000000
v -1.000000 1.000000 1.000000
v -1.000000 1.000000 1.000000
v -1.000000 0.900000 0.900000
v -0.900000 -1.000000 -0.900000
v -1.000000 -0.900000 -0.900000
v -0.900000 -0.900000 -1.000000
v -1.000000 1.000000 -1.000000
v -1.000000 1.000000 -1.000000
v -0.900000 0.900000 -1.000000
v -1.000000 0.900000 -0.900000
v 0.900000 -1.000000 0.900000
v 1.000000 -0.900000 0.900000
v 0.900000 -0.900000 1.000000
v 1.000000 1.000000 1.000000
v 1.000000 1.000000 1.000000
v 0.900000 0.900000 1.000000
v 1.000000 0.900000 0.900000
v 0.900000 -1.000000 -0.900000
v 0.900000 -0.900000 -1.000000
v 1.000000 -0.900000 -0.900000
v 1.000000 1.000000 -1.000000
v 1.000000 1.000000 -1.000000
v 1.000000 0.900000 -0.900000
v 0.900000 0.900000 -1.000000
v -1.000000 1.000000 1.000000
v -1.000000 1.000000 1.000000
v -1.000000 1.000000 1.000000
v -1.000000 1.000000 1.000000
v -1.000000 1.000000 -1.000000
v -1.000000 1.000000 -1.000000
v -1.000000 1.000000 -1.000000
v -1.000000 1.000000 -1.000000
v 1.000000 1.000000 -1.000000
v 1.000000 1.000000 -1.000000
v 1.000000 1.000000 -1.000000
v 1.000000 1.000000 -1.000000
v 1.000000 1.000000 1.000000
v 1.000000 1.000000 1.000000
v 1.000000 1.000000 1.000000
v 1.000000 1.000000 1.000000
v -1.000000 1.000000 1.000000
v -1.000000 1.000000 1.000000
v -1.000000 1.000000 1.000000
v -1.000000 1.000000 1.000000
v -1.000000 1.000000 -1.000000
v -1.000000 1.000000 -1.000000
v -1.000000 1.000000 -1.000000
v -1.000000 1.000000 -1.000000
v 1.000000 1.000000 -1.000000
v 1.000000 1.000000 -1.000000
v 1.000000 1.000000 -1.000000
v 1.000000 1.000000 -1.000000
v 1.000000 1.000000 1.000000
v 1.000000 1.000000 1.000000
v 1.000000 1.000000 1.000000
v 1.000000 1.000000 1.000000
v -0.966051 1.094061 0.885107
v -1.000000 1.000000 1.000000
v -1.000000 1.000000 1.000000
v -0.858114 1.098921 0.985352
v -0.966051 1.094061 -0.890628
v -0.857812 1.099548 -0.990506
v -1.000000 1.000000 -1.000000
v -1.000000 1.000000 -1.000000
v 0.911014 1.099548 -0.990506
v 1.011668 1.099317 -0.890081
v 1.000000 1.000000 -1.000000
v 1.000000 1.000000 -1.000000
v 1.011668 1.099317 0.884218
v 0.910949 1.098921 0.985352
v 1.000000 1.000000 1.000000
v 1.000000 1.000000 1.000000
v 0.554396 5.435371 0.252067
v 0.531001 5.241869 0.270924
v 0.635430 5.237009 0.372609
v 0.654914 5.435764 0.352209
v 0.554396 5.435371 -0.480596
v 0.654914 5.435764 -0.580738
v 0.635280 5.236382 -0.595984
v 0.531001 5.241869 -0.495059
v 1.384887 5.435764 -0.580738
v 1.487787 5.433566 -0.480706
v 1.497734 5.236613 -0.495515
v 1.397025 5.236382 -0.595984
v 1.487787 5.433566 0.252177
v 1.384887 5.435764 0.352209
v 1.397107 5.237009 0.372609
v 1.497734 5.236613 0.271592
v -0.304869 13.531244 -0.114265
v -0.304869 13.531244 -0.114265
v -0.304869 13.531244 -0.114265
v -0.304869 13.531244 -0.114265
v -0.304869 13.531244 -0.114265
v -0.304869 13.531244 -0.114265
v -0.304869 13.531244 -0.114265
v -0.304869 13.531244 -0.114265
v -0.304869 13.531244 -0.114265
v -0.304869 13.531244 -0.114265
v -0.304869 13.531244 -0.114265
v -0.304869 13.531244 -0.114265
vn 0.3416 -0.3416 0.8756
vn 0.2893 -0.1020 0.9518
vn -0.2893 -0.1020 0.9518
vn -0.3416 -0.3416 0.8756
vn 0.3078 0.7585 -0.5744
vn -0.3078 0.7585 -0.5744
vn -0.0000 1.0000 -0.0000
vn 0.5744 0.7585 0.3078
vn 0.5744 0.7585 -0.3078
vn -0.5744 0.7585 -0.3078
vn -0.5744 0.7585 0.3078
vn -0.8756 -0.3416 0.3416
vn -0.9518 -0.1020 0.2893
vn -0.9518 -0.1020 -0.2893
vn -0.8756 -0.3416 -0.3416
vn -0.3078 0.7585 0.5744
vn 0.3078 0.7585 0.5744
vn -0.3416 -0.3416 -0.8756
vn -0.2893 -0.1020 -0.9518
vn 0.2893 -0.1020 -0.9518
vn 0.3416 -0.3416 -0.8756
vn 0.8756 -0.3416 -0.3416
vn 0.9518 -0.1020 -0.2893
vn 0.9518 -0.1020 0.2893
vn 0.8756 -0.3416 0.3416
vn 0.3752 0.9033 -0.2078
vn 0.3641 0.9090 0.2031
vn -0.2929 0.9438 0.1533
vn -0.3007 0.9408 -0.1564
vn -0.9193 0.0292 -0.3925
vn -0.9204 0.0338 0.3896
vn -0.6509 0.7091 0.2711
vn -0.6509 0.7091 -0.2711
vn -0.8591 0.4425 -0.2571
vn -0.8551 0.4510 0.2558
vn -0.8862 0.2617 0.3823
vn -0.8875 0.2473 -0.3888
vn 0.1928 0.9076 0.3730
vn -0.1587 0.9441 0.2889
vn -0.1635 0.9413 -0.2955
vn 0.1992 0.9020 -0.3829
vn -0.2707 0.3159 0.9094
vn 0.2756 0.2196 0.9358
vn 0.4013 0.0993 0.9106
vn -0.3400 0.1936 0.9203
vn 0.2791 0.1690 -0.9453
vn -0.2766 0.2702 -0.9222
vn -0.3407 0.1571 -0.9270
vn 0.3995 0.0643 -0.9145
vn 0.9531 0.0248 0.3015
vn 0.9537 0.0116 -0.3004
vn 0.9268 0.0012 -0.3755
vn 0.9284 0.0141 0.3712
vn -0.3583 0.0739 0.9307
vn 0.3909 0.1259 0.9118
vn 0.2372 0.7738 0.5873
vn -0.2580 0.7373 0.6244
vn 0.3900 0.1139 -0.9137
vn -0.3570 0.0618 -0.9320
vn -0.2580 0.7373 -0.6244
vn 0.2372 0.7738 -0.5873
vn 0.9174 0.1489 0.3692
vn 0.9167 0.1445 -0.3725
vn 0.5538 0.7991 -0.2340
vn 0.5538 0.7991 0.2340
vn -0.3416 -0.8756 0.3416
vn -0.3416 -0.8756 -0.3416
vn 0.3416 -0.8756 0.3416
vn 0.3416 -0.8756 -0.3416
vt 0.387500 0.762500
vt 0.612500 0.762500
vt 0.612500 0.987500
vt 0.387500 0.987500
vt 0.625000 0.500000
vt 0.625000 0.250000
vt 0.625000 0.750000
vt 0.625000 0.000000
vt 0.387500 0.012500
vt 0.612500 0.012500
vt 0.612500 0.237500
vt 0.387500 0.237500
vt 0.625000 1.000000
vt 0.387500 0.262500
vt 0.612500 0.262500
vt 0.612500 0.487500
vt 0.387500 0.487500
vt 0.387500 0.512500
vt 0.612500 0.512500
vt 0.612500 0.737500
vt 0.387500 0.737500
vt 0.625000 0.222566
vt 0.625000 0.027434
vt 0.625000 0.236729
vt 0.625000 0.013296
vt 0.625000 0.024861
vt 0.625000 0.225179
vt 0.000000 0.000000
vt 0.625000 0.986201
vt 0.625000 0.763560
vt 0.625000 0.775250
vt 0.625000 0.974374
vt 0.625000 0.486433
vt 0.625000 0.263810
vt 0.625000 0.275628
vt 0.625000 0.474753
vt 0.625000 0.736663
vt 0.625000 0.513309
vt 0.625000 0.524745
vt 0.625000 0.725211
vt 0.625000 0.972271
vt 0.625000 0.777864
vt 0.625000 0.472136
vt 0.625000 0.277729
vt 0.625000 0.722583
vt 0.625000 0.527417
vt 0.137500 0.737500
vt 0.137500 0.750000
vt 0.125000 0.737500
vt 0.612500 1.000000
vt 0.137500 0.512500
vt 0.125000 0.512500
vt 0.137500 0.500000
vt 0.362500 0.737500
vt 0.375000 0.737500
vt 0.362500 0.750000
vt 0.362500 0.512500
vt 0.362500 0.500000
vt 0.375000 0.512500
vt 0.625000 0.028031
vt 0.625000 0.001523
vt 0.387500 0.000000
vt 0.612500 0.000000
s 1
f 17/1/1 20/2/2 4/3/3 2/4/4
f 25/5/5 12/6/6 35/6/7 40/5/7
f 18/7/8 26/5/9 39/5/7 44/7/7
f 11/6/10 6/8/11 30/8/7 36/6/7
f 3/9/12 7/10/13 14/11/14 9/12/15
f 33/6/7 29/8/7 46/8/7 52/6/7
f 37/5/7 34/6/7 51/6/7 56/5/7
f 5/13/16 19/7/17 43/7/7 31/13/7
f 10/14/18 13/15/19 28/16/20 23/17/21
f 24/18/22 27/19/23 21/20/24 16/21/25
f 57/7/7 54/5/7 71/5/26 76/7/27
f 41/7/7 38/5/7 55/5/7 60/7/7
f 49/6/7 45/8/7 62/8/28 68/6/29
f 32/13/7 42/7/7 59/7/7 47/13/7
f 81/22/30 77/23/31 93/6/32 96/6/33
f 65/24/34 61/25/35 78/26/36 84/27/37
f 48/13/7 58/7/7 75/7/38 63/13/39
f 53/5/7 50/6/7 67/6/40 72/5/41
f 100/28/7 97/28/7 95/28/7 103/28/7
f 64/29/42 74/30/43 91/31/44 79/32/45
f 69/33/46 66/34/47 83/35/48 88/36/49
f 73/37/50 70/38/51 87/39/52 92/40/53
f 80/41/54 90/42/55 104/13/56 94/13/57
f 85/43/58 82/44/59 98/5/60 99/5/61
f 89/45/62 86/46/63 101/7/64 102/7/65
f 1/47/66 2/48/4 3/49/12
f 4/3/3 5/13/16 6/13/11 7/50/13
f 8/51/67 9/52/15 10/53/18
f 11/6/10 12/6/6 13/15/19 14/11/14
f 15/54/68 16/55/25 17/56/1
f 18/7/8 19/7/17 20/2/2 21/20/24
f 22/57/69 23/58/21 24/59/22
f 25/5/5 26/5/9 27/19/23 28/16/20
f 29/8/7 30/8/7 31/8/7 32/8/7
f 33/6/7 34/6/7 35/6/7 36/6/7
f 37/5/7 38/5/7 39/5/7 40/5/7
f 41/7/7 42/7/7 43/7/7 44/7/7
f 45/8/7 46/8/7 47/8/7 48/8/7
f 49/6/7 50/6/7 51/6/7 52/6/7
f 53/5/7 54/5/7 55/5/7 56/5/7
f 57/7/7 58/7/7 59/7/7 60/7/7
f 61/25/35 62/8/28 63/8/39 64/8/42
f 65/24/34 66/34/47 67/6/40 68/6/29
f 69/33/46 70/38/51 71/5/26 72/5/41
f 73/37/50 74/30/43 75/7/38 76/7/27
f 77/60/31 78/26/36 79/8/45 80/61/54
f 81/22/30 82/44/59 83/35/48 84/27/37
f 85/43/58 86/46/63 87/39/52 88/36/49
f 89/45/62 90/42/55 91/31/44 92/40/53
f 93/6/32 94/6/57 95/6/7
f 96/6/33 97/6/7 98/6/60
f 99/5/61 100/5/7 101/5/64
f 102/7/65 103/7/7 104/7/56
f 8/51/67 1/47/66 3/49/12 9/52/15
f 2/62/4 4/63/3 7/10/13 3/9/12
f 6/8/11 11/6/10 14/11/14 7/10/13
f 13/15/19 10/14/18 9/12/15 14/11/14
f 22/57/69 8/51/67 10/53/18 23/58/21
f 12/6/6 25/5/5 28/16/20 13/15/19
f 27/19/23 24/18/22 23/17/21 28/16/20
f 15/54/68 22/57/69 24/18/22 16/21/25
f 26/5/9 18/7/8 21/20/24 27/19/23
f 20/2/2 17/1/1 16/21/25 21/20/24
f 1/47/66 15/54/68 17/56/1 2/48/4
f 19/7/17 5/13/16 4/3/3 20/2/2
f 29/8/7 33/6/7 36/6/7 30/8/7
f 34/6/7 37/5/7 40/5/7 35/6/7
f 38/5/7 41/7/7 44/7/7 39/5/7
f 42/7/7 32/13/7 31/13/7 43/7/7
f 25/5/5 40/5/7 39/5/7 26/5/9
f 43/7/7 19/7/17 18/7/8 44/7/7
f 5/8/16 31/8/7 30/8/7 6/8/11
f 35/6/7 12/6/6 11/6/10 36/6/7
f 45/8/7 49/6/7 52/6/7 46/8/7
f 50/6/7 53/5/7 56/5/7 51/6/7
f 54/5/7 57/7/7 60/7/7 55/5/7
f 58/7/7 48/13/7 47/13/7 59/7/7
f 41/7/7 60/7/7 59/7/7 42/7/7
f 46/8/7 29/8/7 32/8/7 47/8/7
f 33/6/7 52/6/7 51/6/7 34/6/7
f 55/5/7 38/5/7 37/5/7 56/5/7
f 61/25/35 65/24/34 68/6/29 62/8/28
f 66/34/47 69/33/46 72/5/41 67/6/40
f 70/38/51 73/37/50 76/7/27 71/5/26
f 74/30/43 64/29/42 63/13/39 75/7/38
f 49/6/7 68/6/29 67/6/40 50/6/7
f 71/5/26 54/5/7 53/5/7 72/5/41
f 75/7/38 58/7/7 57/7/7 76/7/27
f 48/8/7 63/8/39 62/8/28 45/8/7
f 77/23/31 81/22/30 84/27/37 78/26/36
f 82/44/59 85/43/58 88/36/49 83/35/48
f 86/46/63 89/45/62 92/40/53 87/39/52
f 90/42/55 80/41/54 79/32/45 91/31/44
f 69/33/46 88/36/49 87/39/52 70/38/51
f 91/31/44 74/30/43 73/37/50 92/40/53
f 64/8/42 79/8/45 78/26/36 61/25/35
f 83/35/48 66/34/47 65/24/34 84/27/37
f 95/6/7 97/6/7 96/6/33 93/6/32
f 97/5/7 100/5/7 99/5/61 98/5/60
f 100/28/7 103/28/7 102/7/65 101/7/64
f 103/13/7 95/13/7 94/13/57 104/13/56
f 85/43/58 99/5/61 101/7/64 86/46/63
f 104/13/56 90/42/55 89/45/62 102/7/65
f 80/8/54 94/6/57 93/6/32 77/23/31
f 98/5/60 82/44/59 81/22/30 96/6/33
f 8/51/67 22/57/69 15/54/68 1/47/66
