# Blender 4.0.2
# www.blender.org
mtllib Crack.mtl
o Cube
v -1.000000 -1.000000 1.000000
v -1.000000 1.000000 1.000000
v -1.000000 -1.000000 -1.000000
v -1.000000 1.000000 -1.000000
v 1.000000 -1.000000 1.000000
v 1.000000 1.000000 1.000000
v 1.000000 -1.000000 -1.000000
v 1.000000 1.000000 -1.000000
v -1.000000 1.000000 1.000000
v -1.000000 1.000000 -1.000000
v 1.000000 1.000000 -1.000000
v 1.000000 1.000000 1.000000
v -1.000000 1.000000 1.000000
v -1.000000 1.000000 -1.000000
v 1.000000 1.000000 -1.000000
v 1.000000 1.000000 1.000000
v -1.000000 1.000000 1.000000
v -1.000000 1.000000 -1.000000
v 1.000000 1.000000 -1.000000
v 1.000000 1.000000 1.000000
v 0.564950 5.335930 0.357961
v 0.564950 5.335930 -0.586490
v 1.509402 5.335930 -0.586490
v 1.509402 5.335930 0.357961
v -0.304869 13.531244 -0.114265
v -0.304869 13.531244 -0.114265
v -0.304869 13.531244 -0.114265
v -0.304869 13.531244 -0.114265
vn -1.0000 -0.0000 -0.0000
vn -0.0000 -0.0000 -1.0000
vn 1.0000 -0.0000 -0.0000
vn -0.0000 -0.0000 1.0000
vn -0.0000 -1.0000 -0.0000
vn -0.0000 1.0000 -0.0000
vn 0.9932 -0.1167 -0.0000
vn 0.9764 0.2161 -0.0000
vn -0.9406 0.3395 -0.0000
vn -0.0000 0.1465 0.9892
vn -0.0000 0.0949 -0.9955
vn -0.9944 -0.1055 -0.0000
vn -0.0000 0.0575 0.9983
vn -0.0000 0.0575 -0.9983
vt 0.375000 0.000000
vt 0.625000 0.000000
vt 0.625000 0.250000
vt 0.375000 0.250000
vt 0.625000 0.500000
vt 0.375000 0.500000
vt 0.625000 0.750000
vt 0.375000 0.750000
vt 0.625000 1.000000
vt 0.375000 1.000000
vt 0.125000 0.500000
vt 0.125000 0.750000
vt 0.875000 0.500000
vt 0.875000 0.750000
s 0
f 1/1/1 2/2/1 4/3/1 3/4/1
f 3/4/2 4/3/2 8/5/2 7/6/2
f 7/6/3 8/5/3 6/7/3 5/8/3
f 5/8/4 6/7/4 2/9/4 1/10/4
f 3/11/5 7/6/5 5/8/5 1/12/5
f 6/7/6 8/5/6 11/5/6 12/7/6
f 9/9/6 12/7/6 16/7/6 13/9/6
f 4/3/6 2/2/6 9/2/6 10/3/6
f 2/9/6 6/7/6 12/7/6 9/9/6
f 8/5/6 4/3/6 10/3/6 11/5/6
f 15/5/6 14/3/6 18/3/6 19/5/6
f 11/5/6 10/3/6 14/3/6 15/5/6
f 12/7/6 11/5/6 15/5/6 16/7/6
f 10/3/6 9/2/6 13/2/6 14/3/6
f 20/7/7 19/5/7 23/5/7 24/7/7
f 16/7/6 15/5/6 19/5/6 20/7/6
f 14/3/6 13/2/6 17/2/6 18/3/6
f 13/9/6 16/7/6 20/7/6 17/9/6
f 24/7/8 23/5/8 27/5/8 28/7/8
f 18/3/9 17/2/9 21/2/9 22/3/9
f 17/9/10 20/7/10 24/7/10 21/9/10
f 19/5/11 18/3/11 22/3/11 23/5/11
f 27/5/6 26/13/6 25/14/6 28/7/6
f 22/3/12 21/2/12 25/2/12 26/3/12
f 21/9/13 24/7/13 28/7/13 25/9/13
f 23/5/14 22/3/14 26/3/14 27/5/14
