# Blender 4.0.2
# www.blender.org
mtllib questionmark.mtl
o question_mark
v 0.153129 0.745158 -0.129478
v 0.150514 0.744525 0.137972
v 0.432491 0.544435 -0.123814
v 0.432491 0.544435 -0.123814
v 0.150514 0.744525 0.137972
v 0.429991 0.543859 0.136679
v -0.354768 0.608590 -0.132925
v -0.437748 0.358923 -0.130368
v -0.357306 0.607944 0.130956
v -0.357306 0.607944 0.130956
v -0.437748 0.358923 -0.130368
v -0.440199 0.358359 0.125617
v -0.119985 0.756000 -0.132570
v -0.354768 0.608590 -0.132925
v -0.122574 0.755344 0.135819
v -0.122574 0.755344 0.135819
v -0.354768 0.608590 -0.132925
v -0.357306 0.607944 0.130956
v 0.153575 -0.479168 0.095046
v 0.155412 -0.478743 -0.092460
v 0.121196 -0.382287 0.099887
v 0.121196 -0.382287 0.099887
v 0.155412 -0.478743 -0.092460
v 0.123047 -0.381805 -0.097470
v 0.108195 -0.570436 0.089892
v 0.109931 -0.570034 -0.088598
v 0.153575 -0.479168 0.095046
v 0.153575 -0.479168 0.095046
v 0.109931 -0.570034 -0.088598
v 0.155412 -0.478743 -0.092460
v 0.011613 -0.602745 0.087363
v 0.013275 -0.602323 -0.088054
v 0.108195 -0.570436 0.089892
v 0.108195 -0.570436 0.089892
v 0.013275 -0.602323 -0.088054
v 0.109931 -0.570034 -0.088598
v -0.079877 -0.557363 0.089303
v -0.078160 -0.556912 -0.091614
v 0.011613 -0.602745 0.087363
v 0.011613 -0.602745 0.087363
v -0.078160 -0.556912 -0.091614
v 0.013275 -0.602323 -0.088054
v -0.112263 -0.460407 0.094273
v -0.110441 -0.459977 -0.096645
v -0.079877 -0.557363 0.089303
v -0.079877 -0.557363 0.089303
v -0.110441 -0.459977 -0.096645
v -0.078160 -0.556912 -0.091614
v -0.066611 -0.369198 0.099450
v -0.064658 -0.368751 -0.100537
v -0.112263 -0.460407 0.094273
v -0.112263 -0.460407 0.094273
v -0.064658 -0.368751 -0.100537
v -0.110441 -0.459977 -0.096645
v 0.030290 -0.336618 0.101640
v 0.032193 -0.336116 -0.100721
v -0.066611 -0.369198 0.099450
v -0.066611 -0.369198 0.099450
v 0.032193 -0.336116 -0.100721
v -0.064658 -0.368751 -0.100537
v 0.121196 -0.382287 0.099887
v 0.123047 -0.381805 -0.097470
v 0.030290 -0.336618 0.101640
v 0.030290 -0.336618 0.101640
v 0.123047 -0.381805 -0.097470
v 0.032193 -0.336116 -0.100721
v -0.121893 -0.266474 0.104404
v -0.119863 -0.265972 -0.106034
v 0.081980 -0.251261 0.106622
v 0.081980 -0.251261 0.106622
v -0.119863 -0.265972 -0.106034
v 0.084012 -0.250751 -0.104312
v -0.411887 0.244392 -0.128609
v -0.437748 0.358923 -0.130368
v -0.184569 0.262487 -0.126411
v -0.184569 0.262487 -0.126411
v -0.437748 0.358923 -0.130368
v -0.437748 0.358923 -0.130368
v -0.184569 0.262487 -0.126411
v -0.437748 0.358923 -0.130368
v -0.172005 0.341942 -0.127288
v -0.172005 0.341942 -0.127288
v -0.437748 0.358923 -0.130368
v -0.354768 0.608590 -0.132925
v -0.172005 0.341942 -0.127288
v -0.354768 0.608590 -0.132925
v -0.172005 0.341942 -0.127288
v -0.172005 0.341942 -0.127288
v -0.354768 0.608590 -0.132925
v -0.119985 0.756000 -0.132570
v -0.172005 0.341942 -0.127288
v -0.119985 0.756000 -0.132570
v -0.014835 0.384838 -0.126215
v -0.014835 0.384838 -0.126215
v -0.119985 0.756000 -0.132570
v 0.153129 0.745158 -0.129478
v -0.014835 0.384838 -0.126215
v 0.153129 0.745158 -0.129478
v -0.014835 0.384838 -0.126215
v -0.014835 0.384838 -0.126215
v 0.153129 0.745158 -0.129478
v 0.432491 0.544435 -0.123814
v -0.014835 0.384838 -0.126215
v 0.432491 0.544435 -0.123814
v 0.050243 0.319445 -0.124706
v 0.050243 0.319445 -0.124706
v 0.432491 0.544435 -0.123814
v 0.432491 0.544435 -0.123814
v 0.050243 0.319445 -0.124706
v 0.432491 0.544435 -0.123814
v 0.058974 0.203068 -0.122987
v 0.058974 0.203068 -0.122987
v 0.432491 0.544435 -0.123814
v 0.448729 0.230116 -0.119141
v 0.058974 0.203068 -0.122987
v 0.448729 0.230116 -0.119141
v 0.390066 0.097187 -0.117226
v -0.414261 0.243755 0.123813
v -0.186973 0.261917 0.126058
v -0.440199 0.358359 0.125617
v -0.440199 0.358359 0.125617
v -0.186973 0.261917 0.126058
v -0.174443 0.341319 0.127577
v -0.440199 0.358359 0.125617
v -0.174443 0.341319 0.127577
v -0.357306 0.607944 0.130956
v -0.357306 0.607944 0.130956
v -0.174443 0.341319 0.127577
v -0.017255 0.384207 0.129724
v -0.357306 0.607944 0.130956
v -0.017255 0.384207 0.129724
v -0.122574 0.755344 0.135819
v -0.122574 0.755344 0.135819
v -0.017255 0.384207 0.129724
v -0.017255 0.384207 0.129724
v -0.122574 0.755344 0.135819
v -0.017255 0.384207 0.129724
v 0.150514 0.744525 0.137972
v 0.150514 0.744525 0.137972
v -0.017255 0.384207 0.129724
v -0.017255 0.384207 0.129724
v 0.150514 0.744525 0.137972
v -0.017255 0.384207 0.129724
v 0.429991 0.543859 0.136679
v 0.429991 0.543859 0.136679
v -0.017255 0.384207 0.129724
v 0.047809 0.318840 0.129168
v 0.429991 0.543859 0.136679
v 0.047809 0.318840 0.129168
v 0.429991 0.543859 0.136679
v 0.429991 0.543859 0.136679
v 0.047809 0.318840 0.129168
v 0.056580 0.202479 0.127010
v 0.429991 0.543859 0.136679
v 0.056580 0.202479 0.127010
v 0.446335 0.229527 0.130856
v 0.446335 0.229527 0.130856
v 0.056580 0.202479 0.127010
v 0.387735 0.096613 0.127136
v 0.390066 0.097187 -0.117226
v 0.120410 -0.077401 -0.112257
v 0.058974 0.203068 -0.122987
v 0.058974 0.203068 -0.122987
v 0.120410 -0.077401 -0.112257
v -0.152376 -0.002240 -0.119451
v 0.120410 -0.077401 -0.112257
v 0.098969 -0.124588 -0.110400
v -0.152376 -0.002240 -0.119451
v -0.152376 -0.002240 -0.119451
v 0.098969 -0.124588 -0.110400
v 0.098969 -0.124588 -0.110400
v -0.152376 -0.002240 -0.119451
v 0.098969 -0.124588 -0.110400
v -0.169781 -0.114005 -0.114191
v -0.169781 -0.114005 -0.114191
v 0.098969 -0.124588 -0.110400
v 0.084012 -0.250751 -0.104312
v -0.169781 -0.114005 -0.114191
v 0.084012 -0.250751 -0.104312
v -0.119863 -0.265972 -0.106034
v 0.056580 0.202479 0.127010
v -0.154678 -0.002762 0.118471
v 0.387735 0.096613 0.127136
v 0.387735 0.096613 0.127136
v -0.154678 -0.002762 0.118471
v 0.118210 -0.077892 0.116154
v -0.154678 -0.002762 0.118471
v -0.171972 -0.114522 0.112243
v 0.118210 -0.077892 0.116154
v 0.118210 -0.077892 0.116154
v -0.171972 -0.114522 0.112243
v -0.171972 -0.114522 0.112243
v 0.118210 -0.077892 0.116154
v -0.171972 -0.114522 0.112243
v 0.096842 -0.125120 0.113593
v 0.096842 -0.125120 0.113593
v -0.171972 -0.114522 0.112243
v -0.121893 -0.266474 0.104404
v 0.096842 -0.125120 0.113593
v -0.121893 -0.266474 0.104404
v 0.081980 -0.251261 0.106622
v 0.081980 -0.251261 0.106622
v 0.084012 -0.250751 -0.104312
v 0.096842 -0.125120 0.113593
v 0.096842 -0.125120 0.113593
v 0.084012 -0.250751 -0.104312
v 0.098969 -0.124588 -0.110400
v 0.096842 -0.125120 0.113593
v 0.098969 -0.124588 -0.110400
v 0.118210 -0.077892 0.116154
v 0.118210 -0.077892 0.116154
v 0.098969 -0.124588 -0.110400
v 0.120410 -0.077401 -0.112257
v 0.118210 -0.077892 0.116154
v 0.120410 -0.077401 -0.112257
v 0.387735 0.096613 0.127136
v 0.387735 0.096613 0.127136
v 0.120410 -0.077401 -0.112257
v 0.390066 0.097187 -0.117226
v 0.387735 0.096613 0.127136
v 0.390066 0.097187 -0.117226
v 0.446335 0.229527 0.130856
v 0.446335 0.229527 0.130856
v 0.390066 0.097187 -0.117226
v 0.448729 0.230116 -0.119141
v 0.446335 0.229527 0.130856
v 0.448729 0.230116 -0.119141
v 0.429991 0.543859 0.136679
v 0.429991 0.543859 0.136679
v 0.448729 0.230116 -0.119141
v 0.432491 0.544435 -0.123814
v -0.122574 0.755344 0.135819
v 0.150514 0.744525 0.137972
v -0.119985 0.756000 -0.132570
v -0.119985 0.756000 -0.132570
v 0.150514 0.744525 0.137972
v 0.153129 0.745158 -0.129478
v -0.414261 0.243755 0.123813
v -0.440199 0.358359 0.125617
v -0.411887 0.244392 -0.128609
v -0.411887 0.244392 -0.128609
v -0.440199 0.358359 0.125617
v -0.437748 0.358923 -0.130368
v -0.414261 0.243755 0.123813
v -0.411887 0.244392 -0.128609
v -0.186973 0.261917 0.126058
v -0.186973 0.261917 0.126058
v -0.411887 0.244392 -0.128609
v -0.184569 0.262487 -0.126411
v -0.186973 0.261917 0.126058
v -0.184569 0.262487 -0.126411
v -0.174443 0.341319 0.127577
v -0.174443 0.341319 0.127577
v -0.184569 0.262487 -0.126411
v -0.172005 0.341942 -0.127288
v -0.174443 0.341319 0.127577
v -0.172005 0.341942 -0.127288
v -0.017255 0.384207 0.129724
v -0.017255 0.384207 0.129724
v -0.172005 0.341942 -0.127288
v -0.014835 0.384838 -0.126215
v -0.017255 0.384207 0.129724
v -0.014835 0.384838 -0.126215
v 0.047809 0.318840 0.129168
v 0.047809 0.318840 0.129168
v -0.014835 0.384838 -0.126215
v 0.050243 0.319445 -0.124706
v 0.047809 0.318840 0.129168
v 0.050243 0.319445 -0.124706
v 0.056580 0.202479 0.127010
v 0.056580 0.202479 0.127010
v 0.050243 0.319445 -0.124706
v 0.058974 0.203068 -0.122987
v 0.056580 0.202479 0.127010
v 0.058974 0.203068 -0.122987
v -0.154678 -0.002762 0.118471
v -0.154678 -0.002762 0.118471
v 0.058974 0.203068 -0.122987
v -0.152376 -0.002240 -0.119451
v -0.154678 -0.002762 0.118471
v -0.152376 -0.002240 -0.119451
v -0.171972 -0.114522 0.112243
v -0.171972 -0.114522 0.112243
v -0.152376 -0.002240 -0.119451
v -0.169781 -0.114005 -0.114191
v -0.171972 -0.114522 0.112243
v -0.169781 -0.114005 -0.114191
v -0.121893 -0.266474 0.104404
v -0.121893 -0.266474 0.104404
v -0.169781 -0.114005 -0.114191
v -0.119863 -0.265972 -0.106034
v 0.153575 -0.479168 0.095046
v 0.121196 -0.382287 0.099887
v 0.020815 -0.469652 0.094490
v 0.020815 -0.469652 0.094490
v 0.121196 -0.382287 0.099887
v 0.030290 -0.336618 0.101640
v 0.020815 -0.469652 0.094490
v 0.030290 -0.336618 0.101640
v 0.020815 -0.469652 0.094490
v 0.020815 -0.469652 0.094490
v 0.030290 -0.336618 0.101640
v -0.066611 -0.369198 0.099450
v 0.020815 -0.469652 0.094490
v -0.066611 -0.369198 0.099450
v 0.020815 -0.469652 0.094490
v 0.020815 -0.469652 0.094490
v -0.066611 -0.369198 0.099450
v -0.112263 -0.460407 0.094273
v 0.020815 -0.469652 0.094490
v -0.112263 -0.460407 0.094273
v 0.020815 -0.469652 0.094490
v 0.020815 -0.469652 0.094490
v -0.112263 -0.460407 0.094273
v -0.079877 -0.557363 0.089303
v 0.020815 -0.469652 0.094490
v -0.079877 -0.557363 0.089303
v 0.020815 -0.469652 0.094490
v 0.020815 -0.469652 0.094490
v -0.079877 -0.557363 0.089303
v 0.011613 -0.602745 0.087363
v 0.020815 -0.469652 0.094490
v 0.011613 -0.602745 0.087363
v 0.020815 -0.469652 0.094490
v 0.020815 -0.469652 0.094490
v 0.011613 -0.602745 0.087363
v 0.108195 -0.570436 0.089892
v 0.020815 -0.469652 0.094490
v 0.108195 -0.570436 0.089892
v 0.153575 -0.479168 0.095046
v 0.123047 -0.381805 -0.097470
v 0.155412 -0.478743 -0.092460
v 0.022628 -0.469257 -0.094445
v 0.022628 -0.469257 -0.094445
v 0.155412 -0.478743 -0.092460
v 0.109931 -0.570034 -0.088598
v 0.022628 -0.469257 -0.094445
v 0.109931 -0.570034 -0.088598
v 0.022628 -0.469257 -0.094445
v 0.022628 -0.469257 -0.094445
v 0.109931 -0.570034 -0.088598
v 0.013275 -0.602323 -0.088054
v 0.022628 -0.469257 -0.094445
v 0.013275 -0.602323 -0.088054
v 0.022628 -0.469257 -0.094445
v 0.022628 -0.469257 -0.094445
v 0.013275 -0.602323 -0.088054
v -0.078160 -0.556912 -0.091614
v 0.022628 -0.469257 -0.094445
v -0.078160 -0.556912 -0.091614
v 0.022628 -0.469257 -0.094445
v 0.022628 -0.469257 -0.094445
v -0.078160 -0.556912 -0.091614
v -0.110441 -0.459977 -0.096645
v 0.022628 -0.469257 -0.094445
v -0.110441 -0.459977 -0.096645
v 0.022628 -0.469257 -0.094445
v 0.022628 -0.469257 -0.094445
v -0.110441 -0.459977 -0.096645
v -0.064658 -0.368751 -0.100537
v 0.022628 -0.469257 -0.094445
v -0.064658 -0.368751 -0.100537
v 0.022628 -0.469257 -0.094445
v 0.022628 -0.469257 -0.094445
v -0.064658 -0.368751 -0.100537
v 0.032193 -0.336116 -0.100721
v 0.022628 -0.469257 -0.094445
v 0.032193 -0.336116 -0.100721
v 0.123047 -0.381805 -0.097470
vn 0.5834 0.8122 0.0076
vn 0.5832 0.8123 0.0074
vn -0.9490 0.3153 -0.0084
vn -0.9489 0.3153 -0.0084
vn -0.5317 0.8469 -0.0031
vn -0.5317 0.8469 -0.0030
vn 0.9485 0.3165 0.0100
vn 0.9483 0.3171 0.0097
vn 0.8952 -0.4456 0.0077
vn 0.8952 -0.4456 0.0078
vn 0.3172 -0.9483 0.0007
vn 0.3169 -0.9485 0.0009
vn -0.4445 -0.8958 -0.0065
vn -0.4446 -0.8957 -0.0064
vn -0.9486 -0.3164 -0.0098
vn -0.8940 0.4479 -0.0077
vn -0.8939 0.4483 -0.0075
vn -0.3187 0.9479 -0.0006
vn -0.3193 0.9476 -0.0010
vn 0.4490 0.8935 0.0064
vn 0.4491 0.8935 0.0064
vn 0.0744 -0.9972 -0.0017
vn 0.0745 -0.9972 -0.0017
vn 0.0107 -0.0129 -0.9999
vn -0.5352 0.7611 -0.3665
vn -0.5000 0.0916 0.8612
vn 0.0108 -0.0127 -0.9999
vn 0.0107 -0.0138 -0.9998
vn 0.0103 -0.0141 -0.9998
vn 0.0107 -0.0141 -0.9998
vn 0.0108 -0.0141 -0.9998
vn 0.0103 -0.0139 -0.9999
vn 0.0100 -0.0131 -0.9999
vn 0.0106 -0.0140 -0.9998
vn 0.0109 -0.0143 -0.9998
vn 0.0112 -0.0193 -0.9998
vn -0.0085 -0.0176 0.9998
vn -0.0085 -0.0178 0.9998
vn -0.0086 -0.0185 0.9998
vn -0.0086 -0.0186 0.9998
vn -0.0088 -0.0189 0.9998
vn -0.0086 -0.0189 0.9998
vn 0.1950 0.9644 0.1787
vn -0.0088 -0.0188 0.9998
vn -0.0092 -0.0177 0.9998
vn 0.1377 0.9180 0.3719
vn -0.0084 -0.0192 0.9998
vn -0.0085 -0.0190 0.9998
vn -0.0082 -0.0244 0.9997
vn 0.0056 -0.0370 -0.9993
vn 0.0168 -0.0345 -0.9993
vn 0.0138 -0.0456 -0.9989
vn -0.7869 -0.0116 -0.6169
vn 0.0122 -0.0489 -0.9987
vn 0.0121 -0.0496 -0.9987
vn -0.0103 -0.0310 0.9995
vn -0.0062 -0.0533 0.9986
vn -0.0066 -0.0546 0.9985
vn 0.6455 -0.4254 0.6343
vn -0.0070 -0.0510 0.9987
vn -0.0071 -0.0539 0.9985
vn -0.0068 -0.0544 0.9985
vn 0.9930 -0.1175 0.0093
vn 0.9931 -0.1173 0.0092
vn 0.9109 -0.4126 0.0077
vn 0.9105 -0.4134 0.0079
vn 0.5434 -0.8395 0.0034
vn 0.5435 -0.8394 0.0032
vn 0.9149 -0.4036 0.0078
vn 0.9986 0.0517 0.0097
vn 0.0396 0.9992 0.0028
vn -0.9753 -0.2206 -0.0097
vn -0.9754 -0.2204 -0.0098
vn 0.0797 -0.9968 -0.0018
vn 0.0794 -0.9968 -0.0015
vn 0.9877 -0.1560 0.0091
vn 0.9877 -0.1561 0.0091
vn 0.2632 -0.9647 0.0002
vn 0.2633 -0.9647 0.0001
vn -0.7088 -0.7054 -0.0084
vn -0.7087 -0.7055 -0.0085
vn -0.9971 -0.0750 -0.0097
vn -0.9971 -0.0749 -0.0097
vn -0.6967 0.7173 -0.0050
vn -0.6968 0.7172 -0.0052
vn -0.9881 0.1534 -0.0092
vn -0.9881 0.1535 -0.0092
vn -0.9499 -0.3125 -0.0099
vn -0.0080 -0.0526 0.9986
vn -0.0074 -0.0531 0.9986
vn 0.0858 -0.9538 0.2880
vn -0.0046 -0.0533 0.9986
vn -0.0054 -0.0540 0.9985
vn -0.0053 -0.0530 0.9986
vn -0.1401 -0.9777 0.1566
vn -0.0052 -0.0531 0.9986
vn 0.0191 -0.9895 0.1434
vn -0.0085 -0.0529 0.9986
vn -0.0079 -0.0524 0.9986
vn 0.0115 -0.0478 -0.9988
vn 0.0115 -0.0480 -0.9988
vn 0.1872 -0.9707 -0.1509
vn 0.0107 -0.0487 -0.9988
vn 0.0218 -0.9892 -0.1446
vn 0.0145 -0.0490 -0.9987
vn -0.1372 -0.9774 -0.1608
vn 0.0132 -0.0474 -0.9988
vn -0.2287 -0.9527 -0.2002
vn 0.0131 -0.0492 -0.9987
vn 0.0143 -0.0481 -0.9987
vn 0.0116 -0.0479 -0.9988
vt 0.117188 0.522949
vt 0.040039 0.522949
vt 0.117188 0.474121
vt 0.040039 0.474121
vt 0.117188 0.621582
vt 0.117188 0.670410
vt 0.040039 0.621582
vt 0.040039 0.670410
vt 0.117188 0.572266
vt 0.040039 0.572266
vt 0.117188 0.220703
vt 0.040527 0.220703
vt 0.117188 0.359375
vt 0.040527 0.359375
vt 0.117188 0.129883
vt 0.040527 0.129883
vt 0.117188 0.079590
vt 0.040527 0.079590
vt 0.117188 0.180176
vt 0.040527 0.180176
vt 0.117188 0.281250
vt 0.040527 0.281250
vt 0.117188 0.381836
vt 0.040527 0.381836
vt 0.117188 0.432129
vt 0.040527 0.432129
vt 0.040039 0.178711
vt 0.117188 0.178711
vt 0.040039 0.228027
vt 0.117188 0.228027
vt 0.157715 0.619141
vt 0.138184 0.699219
vt 0.301758 0.625977
vt 0.313477 0.677246
vt 0.198730 0.866211
vt 0.355469 0.949707
vt 0.415527 0.707520
vt 0.536133 0.942383
vt 0.714844 0.804199
vt 0.458984 0.660645
vt 0.465332 0.580566
vt 0.711426 0.594727
vt 0.670410 0.502441
vt 0.496094 0.390137
vt 0.312988 0.448730
vt 0.484863 0.356934
vt 0.302734 0.367188
vt 0.473633 0.270508
vt 0.330078 0.269043
vt 0.040039 0.277344
vt 0.117188 0.277344
vt 0.040039 0.326660
vt 0.117188 0.326660
vt 0.040039 0.338867
vt 0.117188 0.338867
vt 0.040039 0.473145
vt 0.117188 0.473145
vt 0.040039 0.719727
vt 0.117188 0.719727
vt 0.040039 0.769043
vt 0.117188 0.769043
vt 0.040039 0.817871
vt 0.117188 0.817871
vt 0.040039 0.867188
vt 0.117188 0.867188
vt 0.040039 0.916504
vt 0.117188 0.916504
vt 0.040039 0.965332
vt 0.117188 0.965332
vt 0.040039 0.031250
vt 0.117188 0.031250
vt 0.040039 0.080566
vt 0.117188 0.080566
vt 0.040039 0.129883
vt 0.513184 0.118652
vt 0.496582 0.181152
vt 0.419922 0.124512
vt 0.431152 0.218262
vt 0.364258 0.194824
vt 0.333496 0.131348
vt 0.353516 0.066895
vt 0.414551 0.034668
vt 0.480469 0.054199
s 1
usemtl NDS_Material
f 1/1/1 2/2/1 3/3/1
f 4/3/2 5/2/2 6/4/2
f 7/5/3 8/6/3 9/7/3
f 10/7/4 11/6/4 12/8/4
f 13/9/5 14/5/5 15/10/5
f 16/10/6 17/5/6 18/7/6
f 19/11/7 20/12/7 21/13/7
f 22/13/8 23/12/8 24/14/8
f 25/15/9 26/16/9 27/11/9
f 28/11/10 29/16/10 30/12/10
f 31/17/11 32/18/11 33/15/11
f 34/15/12 35/18/12 36/16/12
f 37/19/13 38/20/13 39/17/13
f 40/17/14 41/20/14 42/18/14
f 43/21/15 44/22/15 45/19/15
f 46/19/15 47/22/15 48/20/15
f 49/23/16 50/24/16 51/21/16
f 52/21/17 53/24/17 54/22/17
f 55/25/18 56/26/18 57/23/18
f 58/23/19 59/26/19 60/24/19
f 61/13/20 62/14/20 63/25/20
f 64/25/21 65/14/21 66/26/21
f 67/27/22 68/28/22 69/29/22
f 70/29/23 71/28/23 72/30/23
f 73/31/24 74/32/24 75/33/24
f 76/33/25 77/32/26 78/32/26
f 79/33/27 80/32/27 81/34/27
f 82/34/28 83/32/28 84/35/28
f 85/34/26 86/35/26 87/34/26
f 88/34/29 89/35/29 90/36/29
f 91/34/30 92/36/30 93/37/30
f 94/37/31 95/36/31 96/38/31
f 97/37/26 98/38/26 99/37/26
f 100/37/32 101/38/32 102/39/32
f 103/37/33 104/39/33 105/40/33
f 106/40/26 107/39/26 108/39/26
f 109/40/34 110/39/34 111/41/34
f 112/41/35 113/39/35 114/42/35
f 115/41/36 116/42/36 117/43/36
f 118/31/37 119/33/37 120/32/37
f 121/32/38 122/33/38 123/34/38
f 124/32/39 125/34/39 126/35/39
f 127/35/40 128/34/40 129/37/40
f 130/35/41 131/37/41 132/36/41
f 133/36/26 134/37/26 135/37/26
f 136/36/42 137/37/42 138/38/42
f 139/38/43 140/37/26 141/37/26
f 142/38/44 143/37/44 144/39/44
f 145/39/45 146/37/45 147/40/45
f 148/39/26 149/40/46 150/39/26
f 151/39/47 152/40/47 153/41/47
f 154/39/48 155/41/48 156/42/48
f 157/42/49 158/41/49 159/43/49
f 160/43/50 161/44/50 162/41/50
f 163/41/51 164/44/51 165/45/51
f 166/44/52 167/46/52 168/45/52
f 169/45/53 170/46/26 171/46/26
f 172/45/54 173/46/54 174/47/54
f 175/47/55 176/46/55 177/48/55
f 178/47/55 179/48/55 180/49/55
f 181/41/56 182/45/56 183/43/56
f 184/43/57 185/45/57 186/44/57
f 187/45/58 188/47/58 189/44/58
f 190/44/59 191/47/26 192/47/26
f 193/44/60 194/47/60 195/46/60
f 196/46/61 197/47/61 198/49/61
f 199/46/62 200/49/62 201/48/62
f 202/29/63 203/30/63 204/50/63
f 205/50/64 206/30/64 207/51/64
f 208/50/65 209/51/65 210/52/65
f 211/52/66 212/51/66 213/53/66
f 214/52/67 215/53/67 216/54/67
f 217/54/68 218/53/68 219/55/68
f 220/54/69 221/55/69 222/56/69
f 223/56/69 224/55/69 225/57/69
f 226/56/70 227/57/70 228/4/70
f 229/4/70 230/57/70 231/3/70
f 232/10/71 233/2/71 234/9/71
f 235/9/71 236/2/71 237/1/71
f 238/58/72 239/8/72 240/59/72
f 241/59/73 242/8/73 243/6/73
f 244/58/74 245/59/74 246/60/74
f 247/60/75 248/59/75 249/61/75
f 250/60/76 251/61/76 252/62/76
f 253/62/77 254/61/77 255/63/77
f 256/62/78 257/63/78 258/64/78
f 259/64/79 260/63/79 261/65/79
f 262/64/80 263/65/80 264/66/80
f 265/66/81 266/65/81 267/67/81
f 268/66/82 269/67/82 270/68/82
f 271/68/83 272/67/83 273/69/83
f 274/70/84 275/71/84 276/72/84
f 277/72/85 278/71/85 279/73/85
f 280/72/86 281/73/86 282/74/86
f 283/74/87 284/73/87 285/15/87
f 286/74/88 287/15/88 288/27/88
f 289/27/88 290/15/88 291/28/88
f 292/75/89 293/76/89 294/77/89
f 295/77/90 296/76/90 297/78/90
f 298/77/26 299/78/91 300/77/26
f 301/77/92 302/78/92 303/79/92
f 304/77/26 305/79/26 306/77/26
f 307/77/93 308/79/93 309/80/93
f 310/77/26 311/80/26 312/77/26
f 313/77/94 314/80/94 315/81/94
f 316/77/26 317/81/95 318/77/26
f 319/77/96 320/81/96 321/82/96
f 322/77/26 323/82/97 324/77/26
f 325/77/98 326/82/98 327/83/98
f 328/77/99 329/83/99 330/75/99
f 331/76/100 332/75/100 333/77/100
f 334/77/101 335/75/101 336/83/101
f 337/77/26 338/83/102 339/77/26
f 340/77/103 341/83/103 342/82/103
f 343/77/26 344/82/104 345/77/26
f 346/77/105 347/82/105 348/81/105
f 349/77/26 350/81/106 351/77/26
f 352/77/107 353/81/107 354/80/107
f 355/77/26 356/80/108 357/77/26
f 358/77/109 359/80/109 360/79/109
f 361/77/26 362/79/26 363/77/26
f 364/77/110 365/79/110 366/78/110
f 367/77/111 368/78/111 369/76/111
