# MagicaVoxel @ Ephtracy

# group
o 

# material
mtllib SwordShrine.mtl
usemtl palette

# normals
vn -1 0 0
vn 1 0 0
vn 0 0 1
vn 0 0 -1
vn 0 -1 0
vn 0 1 0

# texcoords
vt 0.869141 0.5
vt 0.873047 0.5
vt 0.978516 0.5
vt 0.986328 0.5
vt 0.990234 0.5
vt 0.994141 0.5

# verts
v -0.5 0 0.1
v -0.5 0 -0.4
v -0.5 0.1 -0.1
v -0.5 0.1 -0.2
v -0.5 0.2 0
v -0.5 0.2 -0.1
v -0.5 0.2 -0.2
v -0.5 0.2 -0.4
v -0.5 0.3 0.1
v -0.5 0.3 0
v -0.5 0.3 -0.1
v -0.5 0.3 -0.2
v -0.5 0.3 -0.4
v -0.4 0 0.2
v -0.4 0 0.1
v -0.4 0 -0.4
v -0.4 0 -0.5
v -0.4 0.1 0.2
v -0.4 0.1 0.1
v -0.4 0.2 -0.4
v -0.4 0.2 -0.5
v -0.4 0.3 0.2
v -0.4 0.3 0.1
v -0.4 0.3 0
v -0.4 0.3 -0.1
v -0.4 0.3 -0.2
v -0.4 0.3 -0.3
v -0.4 0.3 -0.4
v -0.4 0.3 -0.5
v -0.4 0.4 0.1
v -0.4 0.4 0
v -0.4 0.4 -0.2
v -0.4 0.4 -0.3
v -0.4 0.4 -0.4
v -0.3 0 0.3
v -0.3 0 0.2
v -0.3 0 -0.5
v -0.3 0 -0.6
v -0.3 0.1 0.3
v -0.3 0.1 0.2
v -0.3 0.1 -0.5
v -0.3 0.1 -0.6
v -0.3 0.2 -0.5
v -0.3 0.2 -0.6
v -0.3 0.3 0.3
v -0.3 0.3 0.2
v -0.3 0.3 0.1
v -0.3 0.3 -0.4
v -0.3 0.3 -0.5
v -0.3 0.3 -0.6
v -0.3 0.4 0.2
v -0.3 0.4 0.1
v -0.3 0.4 -0.4
v -0.3 0.4 -0.5
v -0.2 0 0.4
v -0.2 0 0.3
v -0.2 0 -0.6
v -0.2 0 -0.7
v -0.2 0.1 0.3
v -0.2 0.1 -0.6
v -0.2 0.2 -0.6
v -0.2 0.2 -0.7
v -0.2 0.3 0.4
v -0.2 0.3 0.3
v -0.2 0.3 0.2
v -0.2 0.3 -0.5
v -0.2 0.3 -0.6
v -0.2 0.3 -0.7
v -0.2 0.4 0.3
v -0.2 0.4 0.2
v -0.2 0.4 -0.5
v -0.2 0.4 -0.6
v -0.1 0.6 -0.1
v -0.1 0.6 -0.2
v -0.1 0.7 -0.1
v -0.1 0.7 -0.2
v 0 0.4 -0.1
v 0 0.4 -0.2
v 0 0.6 -0.1
v 0 0.6 -0.2
v 0 0.7 -0.1
v 0 0.7 -0.2
v 0 0.8 -0.1
v 0 0.8 -0.2
v 0 0.9 -0.1
v 0 0.9 -0.2
v 0 1 -0.1
v 0 1 -0.2
v 0 1.1 -0.1
v 0 1.1 -0.2
v 0 1.3 -0.1
v 0 1.3 -0.2
v 0.1 0.4 -0.1
v 0.1 0.4 -0.2
v 0.1 0.6 -0.1
v 0.1 0.6 -0.2
v 0.1 0.7 -0.1
v 0.1 0.7 -0.2
v 0.1 0.8 -0.1
v 0.1 0.8 -0.2
v 0.1 0.9 -0.1
v 0.1 0.9 -0.2
v 0.1 1 -0.1
v 0.1 1 -0.2
v 0.1 1.1 -0.1
v 0.1 1.1 -0.2
v 0.1 1.3 -0.1
v 0.1 1.3 -0.2
v 0.2 0.6 -0.1
v 0.2 0.6 -0.2
v 0.2 0.7 -0.1
v 0.2 0.7 -0.2
v 0.3 0 0.4
v 0.3 0 0.3
v 0.3 0 -0.6
v 0.3 0 -0.7
v 0.3 0.1 0.3
v 0.3 0.2 0.4
v 0.3 0.2 0.3
v 0.3 0.3 0.4
v 0.3 0.3 0.3
v 0.3 0.3 0.2
v 0.3 0.3 -0.5
v 0.3 0.3 -0.6
v 0.3 0.3 -0.7
v 0.3 0.4 0.3
v 0.3 0.4 0.2
v 0.3 0.4 -0.5
v 0.3 0.4 -0.6
v 0.4 0 0.3
v 0.4 0 0.2
v 0.4 0 -0.5
v 0.4 0 -0.6
v 0.4 0.1 0.3
v 0.4 0.1 0.2
v 0.4 0.1 -0.5
v 0.4 0.3 0.3
v 0.4 0.3 0.2
v 0.4 0.3 0.1
v 0.4 0.3 -0.4
v 0.4 0.3 -0.5
v 0.4 0.3 -0.6
v 0.4 0.4 0.2
v 0.4 0.4 0.1
v 0.4 0.4 -0.4
v 0.4 0.4 -0.5
v 0.5 0 0.2
v 0.5 0 0.1
v 0.5 0 -0.4
v 0.5 0 -0.5
v 0.5 0.1 0.2
v 0.5 0.1 0.1
v 0.5 0.1 -0.4
v 0.5 0.1 -0.5
v 0.5 0.2 0.1
v 0.5 0.3 0.2
v 0.5 0.3 0.1
v 0.5 0.3 -0.1
v 0.5 0.3 -0.2
v 0.5 0.3 -0.4
v 0.5 0.3 -0.5
v 0.5 0.4 0.1
v 0.5 0.4 -0.4
v 0.6 0 0.1
v 0.6 0 -0.4
v 0.6 0.1 0
v 0.6 0.1 -0.1
v 0.6 0.1 -0.3
v 0.6 0.1 -0.4
v 0.6 0.2 0.1
v 0.6 0.2 0
v 0.6 0.2 -0.2
v 0.6 0.2 -0.3
v 0.6 0.3 0.1
v 0.6 0.3 -0.1
v 0.6 0.3 -0.2
v 0.6 0.3 -0.4
v -0.2 0 0.4
v -0.2 0.3 0.4
v 0 0.2 0.4
v 0 0.3 0.4
v 0.3 0 0.4
v 0.3 0.2 0.4
v 0.3 0.3 0.4
v -0.3 0 0.3
v -0.3 0.1 0.3
v -0.3 0.3 0.3
v -0.2 0 0.3
v -0.2 0.1 0.3
v -0.2 0.3 0.3
v -0.2 0.4 0.3
v 0 0.3 0.3
v 0.3 0 0.3
v 0.3 0.1 0.3
v 0.3 0.2 0.3
v 0.3 0.3 0.3
v 0.3 0.4 0.3
v 0.4 0 0.3
v 0.4 0.1 0.3
v 0.4 0.3 0.3
v -0.4 0 0.2
v -0.4 0.1 0.2
v -0.4 0.3 0.2
v -0.3 0 0.2
v -0.3 0.1 0.2
v -0.3 0.3 0.2
v -0.3 0.4 0.2
v -0.2 0.3 0.2
v -0.2 0.4 0.2
v 0.3 0.3 0.2
v 0.3 0.4 0.2
v 0.4 0 0.2
v 0.4 0.1 0.2
v 0.4 0.3 0.2
v 0.4 0.4 0.2
v 0.5 0 0.2
v 0.5 0.1 0.2
v 0.5 0.3 0.2
v -0.5 0 0.1
v -0.5 0.3 0.1
v -0.4 0 0.1
v -0.4 0.1 0.1
v -0.4 0.3 0.1
v -0.4 0.4 0.1
v -0.3 0.3 0.1
v -0.3 0.4 0.1
v 0.4 0.3 0.1
v 0.4 0.4 0.1
v 0.5 0 0.1
v 0.5 0.1 0.1
v 0.5 0.2 0.1
v 0.5 0.3 0.1
v 0.5 0.4 0.1
v 0.6 0 0.1
v 0.6 0.2 0.1
v 0.6 0.3 0.1
v -0.1 0.6 -0.1
v -0.1 0.7 -0.1
v 0 0.4 -0.1
v 0 0.6 -0.1
v 0 0.7 -0.1
v 0 0.8 -0.1
v 0 0.9 -0.1
v 0 1 -0.1
v 0 1.1 -0.1
v 0 1.3 -0.1
v 0.1 0.4 -0.1
v 0.1 0.6 -0.1
v 0.1 0.7 -0.1
v 0.1 0.8 -0.1
v 0.1 0.9 -0.1
v 0.1 1 -0.1
v 0.1 1.1 -0.1
v 0.1 1.3 -0.1
v 0.2 0.6 -0.1
v 0.2 0.7 -0.1
v -0.1 0.6 -0.2
v -0.1 0.7 -0.2
v 0 0.4 -0.2
v 0 0.6 -0.2
v 0 0.7 -0.2
v 0 0.8 -0.2
v 0 0.9 -0.2
v 0 1 -0.2
v 0 1.1 -0.2
v 0 1.3 -0.2
v 0.1 0.4 -0.2
v 0.1 0.6 -0.2
v 0.1 0.7 -0.2
v 0.1 0.8 -0.2
v 0.1 0.9 -0.2
v 0.1 1 -0.2
v 0.1 1.1 -0.2
v 0.1 1.3 -0.2
v 0.2 0.6 -0.2
v 0.2 0.7 -0.2
v -0.5 0 -0.4
v -0.5 0.2 -0.4
v -0.5 0.3 -0.4
v -0.4 0 -0.4
v -0.4 0.2 -0.4
v -0.4 0.3 -0.4
v -0.4 0.4 -0.4
v -0.3 0.3 -0.4
v -0.3 0.4 -0.4
v 0.4 0.3 -0.4
v 0.4 0.4 -0.4
v 0.5 0 -0.4
v 0.5 0.1 -0.4
v 0.5 0.3 -0.4
v 0.5 0.4 -0.4
v 0.6 0 -0.4
v 0.6 0.1 -0.4
v 0.6 0.3 -0.4
v -0.4 0 -0.5
v -0.4 0.2 -0.5
v -0.4 0.3 -0.5
v -0.3 0 -0.5
v -0.3 0.1 -0.5
v -0.3 0.2 -0.5
v -0.3 0.3 -0.5
v -0.3 0.4 -0.5
v -0.2 0.3 -0.5
v -0.2 0.4 -0.5
v 0.3 0.3 -0.5
v 0.3 0.4 -0.5
v 0.4 0 -0.5
v 0.4 0.1 -0.5
v 0.4 0.3 -0.5
v 0.4 0.4 -0.5
v 0.5 0 -0.5
v 0.5 0.1 -0.5
v 0.5 0.3 -0.5
v -0.3 0 -0.6
v -0.3 0.1 -0.6
v -0.3 0.2 -0.6
v -0.3 0.3 -0.6
v -0.2 0 -0.6
v -0.2 0.1 -0.6
v -0.2 0.2 -0.6
v -0.2 0.3 -0.6
v -0.2 0.4 -0.6
v -0.1 0.3 -0.6
v 0 0.3 -0.6
v 0 0.4 -0.6
v 0.1 0.3 -0.6
v 0.1 0.4 -0.6
v 0.2 0.3 -0.6
v 0.2 0.4 -0.6
v 0.3 0 -0.6
v 0.3 0.3 -0.6
v 0.3 0.4 -0.6
v 0.4 0 -0.6
v 0.4 0.3 -0.6
v -0.2 0 -0.7
v -0.2 0.2 -0.7
v -0.2 0.3 -0.7
v -0.1 0 -0.7
v -0.1 0.1 -0.7
v -0.1 0.2 -0.7
v -0.1 0.3 -0.7
v 0 0.1 -0.7
v 0 0.2 -0.7
v 0.1 0.2 -0.7
v 0.1 0.3 -0.7
v 0.3 0 -0.7
v 0.3 0.3 -0.7
v -0.2 0 0.4
v 0.3 0 0.4
v -0.3 0 0.3
v -0.2 0 0.3
v 0.3 0 0.3
v 0.4 0 0.3
v -0.4 0 0.2
v -0.3 0 0.2
v -0.2 0 0.2
v 0.4 0 0.2
v 0.5 0 0.2
v -0.5 0 0.1
v -0.4 0 0.1
v 0.5 0 0.1
v 0.6 0 0.1
v -0.5 0 -0.4
v -0.4 0 -0.4
v 0.4 0 -0.4
v 0.5 0 -0.4
v 0.6 0 -0.4
v -0.4 0 -0.5
v -0.3 0 -0.5
v -0.2 0 -0.5
v 0.4 0 -0.5
v 0.5 0 -0.5
v -0.3 0 -0.6
v -0.2 0 -0.6
v -0.1 0 -0.6
v 0.3 0 -0.6
v 0.4 0 -0.6
v -0.2 0 -0.7
v -0.1 0 -0.7
v 0.3 0 -0.7
v -0.1 0.6 -0.1
v 0 0.6 -0.1
v 0.1 0.6 -0.1
v 0.2 0.6 -0.1
v -0.1 0.6 -0.2
v 0 0.6 -0.2
v 0.1 0.6 -0.2
v 0.2 0.6 -0.2
v -0.2 0.3 0.4
v 0 0.3 0.4
v 0.3 0.3 0.4
v -0.3 0.3 0.3
v -0.2 0.3 0.3
v 0 0.3 0.3
v 0.3 0.3 0.3
v 0.4 0.3 0.3
v -0.4 0.3 0.2
v -0.3 0.3 0.2
v -0.2 0.3 0.2
v 0.3 0.3 0.2
v 0.4 0.3 0.2
v 0.5 0.3 0.2
v -0.5 0.3 0.1
v -0.4 0.3 0.1
v -0.3 0.3 0.1
v 0.4 0.3 0.1
v 0.5 0.3 0.1
v 0.6 0.3 0.1
v -0.5 0.3 0
v -0.4 0.3 0
v -0.5 0.3 -0.1
v -0.4 0.3 -0.1
v 0.5 0.3 -0.1
v 0.6 0.3 -0.1
v -0.5 0.3 -0.2
v -0.4 0.3 -0.2
v 0.5 0.3 -0.2
v 0.6 0.3 -0.2
v -0.4 0.3 -0.3
v -0.5 0.3 -0.4
v -0.4 0.3 -0.4
v -0.3 0.3 -0.4
v 0.4 0.3 -0.4
v 0.5 0.3 -0.4
v 0.6 0.3 -0.4
v -0.4 0.3 -0.5
v -0.3 0.3 -0.5
v -0.2 0.3 -0.5
v 0.3 0.3 -0.5
v 0.4 0.3 -0.5
v 0.5 0.3 -0.5
v -0.3 0.3 -0.6
v -0.2 0.3 -0.6
v -0.1 0.3 -0.6
v 0 0.3 -0.6
v 0.1 0.3 -0.6
v 0.2 0.3 -0.6
v 0.3 0.3 -0.6
v 0.4 0.3 -0.6
v -0.2 0.3 -0.7
v -0.1 0.3 -0.7
v 0.1 0.3 -0.7
v 0.3 0.3 -0.7
v -0.2 0.4 0.3
v 0.3 0.4 0.3
v -0.3 0.4 0.2
v -0.2 0.4 0.2
v 0.3 0.4 0.2
v 0.4 0.4 0.2
v -0.4 0.4 0.1
v -0.3 0.4 0.1
v 0.1 0.4 0.1
v 0.2 0.4 0.1
v 0.4 0.4 0.1
v 0.5 0.4 0.1
v -0.4 0.4 0
v -0.3 0.4 0
v 0.1 0.4 0
v 0.2 0.4 0
v -0.3 0.4 -0.1
v -0.2 0.4 -0.1
v 0 0.4 -0.1
v 0.1 0.4 -0.1
v -0.4 0.4 -0.2
v -0.2 0.4 -0.2
v 0 0.4 -0.2
v 0.1 0.4 -0.2
v -0.4 0.4 -0.3
v -0.3 0.4 -0.3
v -0.1 0.4 -0.3
v 0.2 0.4 -0.3
v -0.4 0.4 -0.4
v -0.3 0.4 -0.4
v -0.1 0.4 -0.4
v 0.2 0.4 -0.4
v 0.4 0.4 -0.4
v 0.5 0.4 -0.4
v -0.3 0.4 -0.5
v -0.2 0.4 -0.5
v -0.1 0.4 -0.5
v 0 0.4 -0.5
v 0.1 0.4 -0.5
v 0.2 0.4 -0.5
v 0.3 0.4 -0.5
v 0.4 0.4 -0.5
v -0.2 0.4 -0.6
v 0 0.4 -0.6
v 0.1 0.4 -0.6
v 0.2 0.4 -0.6
v 0.3 0.4 -0.6
v -0.1 0.7 -0.1
v 0 0.7 -0.1
v 0.1 0.7 -0.1
v 0.2 0.7 -0.1
v -0.1 0.7 -0.2
v 0 0.7 -0.2
v 0.1 0.7 -0.2
v 0.2 0.7 -0.2
v 0 1.3 -0.1
v 0.1 1.3 -0.1
v 0 1.3 -0.2
v 0.1 1.3 -0.2

# faces
f 3/4/1 2/4/1 1/4/1
f 4/4/1 2/4/1 3/4/1
f 5/4/1 3/4/1 1/4/1
f 6/6/1 4/6/1 3/6/1
f 6/4/1 3/4/1 5/4/1
f 7/4/1 2/4/1 4/4/1
f 7/6/1 4/6/1 6/6/1
f 8/4/1 2/4/1 7/4/1
f 9/4/1 5/4/1 1/4/1
f 10/6/1 6/6/1 5/6/1
f 10/4/1 5/4/1 9/4/1
f 11/4/1 7/4/1 6/4/1
f 11/6/1 6/6/1 10/6/1
f 12/6/1 8/6/1 7/6/1
f 12/4/1 7/4/1 11/4/1
f 13/6/1 8/6/1 12/6/1
f 18/4/1 15/4/1 14/4/1
f 19/4/1 15/4/1 18/4/1
f 20/4/1 17/4/1 16/4/1
f 21/4/1 17/4/1 20/4/1
f 22/6/1 19/6/1 18/6/1
f 23/6/1 19/6/1 22/6/1
f 28/6/1 21/6/1 20/6/1
f 29/6/1 21/6/1 28/6/1
f 30/4/1 24/4/1 23/4/1
f 31/6/1 25/6/1 24/6/1
f 31/4/1 24/4/1 30/4/1
f 31/6/1 26/6/1 25/6/1
f 32/4/1 27/4/1 26/4/1
f 32/6/1 26/6/1 31/6/1
f 33/6/1 28/6/1 27/6/1
f 33/4/1 27/4/1 32/4/1
f 34/6/1 28/6/1 33/6/1
f 39/6/1 36/6/1 35/6/1
f 40/6/1 36/6/1 39/6/1
f 41/6/1 38/6/1 37/6/1
f 42/6/1 38/6/1 41/6/1
f 43/4/1 42/4/1 41/4/1
f 44/4/1 42/4/1 43/4/1
f 45/4/1 40/4/1 39/4/1
f 46/4/1 40/4/1 45/4/1
f 49/6/1 44/6/1 43/6/1
f 50/6/1 44/6/1 49/6/1
f 51/4/1 47/4/1 46/4/1
f 52/4/1 47/4/1 51/4/1
f 53/6/1 49/6/1 48/6/1
f 54/6/1 49/6/1 53/6/1
f 59/4/1 56/4/1 55/4/1
f 60/6/1 58/6/1 57/6/1
f 61/6/1 58/6/1 60/6/1
f 62/6/1 58/6/1 61/6/1
f 63/4/1 59/4/1 55/4/1
f 64/4/1 59/4/1 63/4/1
f 67/4/1 62/4/1 61/4/1
f 68/4/1 62/4/1 67/4/1
f 69/6/1 65/6/1 64/6/1
f 70/6/1 65/6/1 69/6/1
f 71/4/1 67/4/1 66/4/1
f 72/4/1 67/4/1 71/4/1
f 75/5/1 74/5/1 73/5/1
f 76/5/1 74/5/1 75/5/1
f 79/3/1 78/3/1 77/3/1
f 80/3/1 78/3/1 79/3/1
f 83/5/1 82/5/1 81/5/1
f 84/5/1 82/5/1 83/5/1
f 85/2/1 84/2/1 83/2/1
f 86/2/1 84/2/1 85/2/1
f 87/1/1 86/1/1 85/1/1
f 88/1/1 86/1/1 87/1/1
f 89/2/1 88/2/1 87/2/1
f 90/2/1 88/2/1 89/2/1
f 91/1/1 90/1/1 89/1/1
f 92/1/1 90/1/1 91/1/1
f 93/3/2 94/3/2 95/3/2
f 95/3/2 94/3/2 96/3/2
f 97/5/2 98/5/2 99/5/2
f 99/5/2 98/5/2 100/5/2
f 99/2/2 100/2/2 101/2/2
f 101/2/2 100/2/2 102/2/2
f 101/1/2 102/1/2 103/1/2
f 103/1/2 102/1/2 104/1/2
f 103/2/2 104/2/2 105/2/2
f 105/2/2 104/2/2 106/2/2
f 105/1/2 106/1/2 107/1/2
f 107/1/2 106/1/2 108/1/2
f 109/5/2 110/5/2 111/5/2
f 111/5/2 110/5/2 112/5/2
f 113/4/2 114/4/2 117/4/2
f 113/4/2 117/4/2 118/4/2
f 118/4/2 117/4/2 119/4/2
f 118/6/2 119/6/2 120/6/2
f 120/6/2 119/6/2 121/6/2
f 115/4/2 116/4/2 124/4/2
f 124/4/2 116/4/2 125/4/2
f 121/6/2 122/6/2 126/6/2
f 126/6/2 122/6/2 127/6/2
f 123/6/2 124/6/2 128/6/2
f 128/6/2 124/6/2 129/6/2
f 130/4/2 131/4/2 134/4/2
f 134/4/2 131/4/2 135/4/2
f 132/4/2 133/4/2 136/4/2
f 134/6/2 135/6/2 137/6/2
f 137/6/2 135/6/2 138/6/2
f 136/4/2 133/4/2 141/4/2
f 141/4/2 133/4/2 142/4/2
f 138/4/2 139/4/2 143/4/2
f 143/4/2 139/4/2 144/4/2
f 140/4/2 141/4/2 145/4/2
f 145/4/2 141/4/2 146/4/2
f 147/4/2 148/4/2 151/4/2
f 151/4/2 148/4/2 152/4/2
f 149/6/2 150/6/2 153/6/2
f 153/6/2 150/6/2 154/6/2
f 151/6/2 152/6/2 155/6/2
f 151/6/2 155/6/2 156/6/2
f 156/6/2 155/6/2 157/6/2
f 153/4/2 154/4/2 160/4/2
f 160/4/2 154/4/2 161/4/2
f 158/4/2 159/4/2 162/4/2
f 159/4/2 160/4/2 162/4/2
f 157/4/2 158/4/2 162/4/2
f 162/4/2 160/4/2 163/4/2
f 164/4/2 165/4/2 166/4/2
f 166/4/2 165/4/2 167/4/2
f 167/4/2 165/4/2 168/4/2
f 168/4/2 165/4/2 169/4/2
f 164/4/2 166/4/2 170/4/2
f 166/6/2 167/6/2 171/6/2
f 170/4/2 166/4/2 171/4/2
f 167/4/2 168/4/2 172/4/2
f 168/6/2 169/6/2 173/6/2
f 172/4/2 168/4/2 173/4/2
f 170/6/2 171/6/2 174/6/2
f 171/6/2 167/6/2 175/6/2
f 174/6/2 171/6/2 175/6/2
f 167/4/2 172/4/2 175/4/2
f 172/6/2 173/6/2 176/6/2
f 175/4/2 172/4/2 176/4/2
f 173/6/2 169/6/2 177/6/2
f 176/6/2 173/6/2 177/6/2
f 180/4/3 179/4/3 178/4/3
f 181/4/3 179/4/3 180/4/3
f 182/4/3 180/4/3 178/4/3
f 183/6/3 181/6/3 180/6/3
f 183/4/3 180/4/3 182/4/3
f 184/6/3 181/6/3 183/6/3
f 188/6/3 186/6/3 185/6/3
f 189/4/3 187/4/3 186/4/3
f 189/6/3 186/6/3 188/6/3
f 190/4/3 187/4/3 189/4/3
f 192/6/3 191/6/3 190/6/3
f 196/6/3 191/6/3 192/6/3
f 197/6/3 191/6/3 196/6/3
f 198/4/3 194/4/3 193/4/3
f 199/6/3 195/6/3 194/6/3
f 199/4/3 194/4/3 198/4/3
f 199/6/3 196/6/3 195/6/3
f 200/6/3 196/6/3 199/6/3
f 204/4/3 202/4/3 201/4/3
f 205/6/3 203/6/3 202/6/3
f 205/4/3 202/4/3 204/4/3
f 206/6/3 203/6/3 205/6/3
f 208/4/3 207/4/3 206/4/3
f 209/4/3 207/4/3 208/4/3
f 214/4/3 211/4/3 210/4/3
f 215/4/3 211/4/3 214/4/3
f 216/4/3 213/4/3 212/4/3
f 217/6/3 214/6/3 213/6/3
f 217/4/3 213/4/3 216/4/3
f 218/6/3 214/6/3 217/6/3
f 221/4/3 220/4/3 219/4/3
f 222/4/3 220/4/3 221/4/3
f 223/4/3 220/4/3 222/4/3
f 225/4/3 224/4/3 223/4/3
f 226/4/3 224/4/3 225/4/3
f 232/4/3 228/4/3 227/4/3
f 233/4/3 228/4/3 232/4/3
f 234/4/3 231/4/3 230/4/3
f 234/4/3 230/4/3 229/4/3
f 235/6/3 232/6/3 231/6/3
f 235/4/3 231/4/3 234/4/3
f 236/6/3 232/6/3 235/6/3
f 240/5/3 238/5/3 237/5/3
f 241/5/3 238/5/3 240/5/3
f 247/3/3 240/3/3 239/3/3
f 248/5/3 241/5/3 240/5/3
f 248/3/3 240/3/3 247/3/3
f 248/5/3 242/5/3 241/5/3
f 249/5/3 242/5/3 248/5/3
f 250/2/3 243/2/3 242/2/3
f 250/5/3 242/5/3 249/5/3
f 251/1/3 244/1/3 243/1/3
f 251/2/3 243/2/3 250/2/3
f 252/2/3 245/2/3 244/2/3
f 252/1/3 244/1/3 251/1/3
f 253/1/3 246/1/3 245/1/3
f 253/2/3 245/2/3 252/2/3
f 254/1/3 246/1/3 253/1/3
f 255/5/3 249/5/3 248/5/3
f 256/5/3 249/5/3 255/5/3
f 257/5/4 258/5/4 260/5/4
f 260/5/4 258/5/4 261/5/4
f 259/3/4 260/3/4 267/3/4
f 260/5/4 261/5/4 268/5/4
f 267/3/4 260/3/4 268/3/4
f 261/5/4 262/5/4 268/5/4
f 268/5/4 262/5/4 269/5/4
f 262/2/4 263/2/4 270/2/4
f 269/5/4 262/5/4 270/5/4
f 263/1/4 264/1/4 271/1/4
f 270/2/4 263/2/4 271/2/4
f 264/2/4 265/2/4 272/2/4
f 271/1/4 264/1/4 272/1/4
f 265/1/4 266/1/4 273/1/4
f 272/2/4 265/2/4 273/2/4
f 273/1/4 266/1/4 274/1/4
f 268/5/4 269/5/4 275/5/4
f 275/5/4 269/5/4 276/5/4
f 277/4/4 278/4/4 280/4/4
f 278/6/4 279/6/4 281/6/4
f 280/4/4 278/4/4 281/4/4
f 281/6/4 279/6/4 282/6/4
f 282/6/4 283/6/4 284/6/4
f 284/6/4 283/6/4 285/6/4
f 286/4/4 287/4/4 290/4/4
f 290/4/4 287/4/4 291/4/4
f 288/4/4 289/4/4 292/4/4
f 289/6/4 290/6/4 293/6/4
f 292/4/4 289/4/4 293/4/4
f 293/6/4 290/6/4 294/6/4
f 295/4/4 296/4/4 298/4/4
f 298/4/4 296/4/4 299/4/4
f 296/6/4 297/6/4 300/6/4
f 299/4/4 296/4/4 300/4/4
f 300/6/4 297/6/4 301/6/4
f 301/6/4 302/6/4 303/6/4
f 303/6/4 302/6/4 304/6/4
f 305/4/4 306/4/4 309/4/4
f 309/4/4 306/4/4 310/4/4
f 307/6/4 308/6/4 311/6/4
f 308/4/4 309/4/4 312/4/4
f 311/6/4 308/6/4 312/6/4
f 312/4/4 309/4/4 313/4/4
f 314/6/4 315/6/4 318/6/4
f 315/4/4 316/4/4 319/4/4
f 318/6/4 315/6/4 319/6/4
f 316/6/4 317/6/4 320/6/4
f 319/4/4 316/4/4 320/4/4
f 320/6/4 317/6/4 321/6/4
f 321/4/4 322/4/4 323/4/4
f 323/4/4 322/4/4 324/4/4
f 324/4/4 322/4/4 325/4/4
f 324/6/4 325/6/4 326/6/4
f 326/6/4 325/6/4 327/6/4
f 326/4/4 327/4/4 328/4/4
f 328/4/4 327/4/4 329/4/4
f 328/6/4 329/6/4 331/6/4
f 331/6/4 329/6/4 332/6/4
f 330/4/4 331/4/4 333/4/4
f 333/4/4 331/4/4 334/4/4
f 335/6/4 336/6/4 338/6/4
f 338/6/4 336/6/4 339/6/4
f 336/4/4 337/4/4 340/4/4
f 339/6/4 336/6/4 340/6/4
f 340/4/4 337/4/4 341/4/4
f 338/4/4 339/4/4 342/4/4
f 339/6/4 340/6/4 342/6/4
f 340/6/4 341/6/4 342/6/4
f 342/6/4 341/6/4 343/6/4
f 342/4/4 343/4/4 344/4/4
f 343/6/4 341/6/4 344/6/4
f 344/6/4 341/6/4 345/6/4
f 338/4/4 342/4/4 346/4/4
f 342/4/4 344/4/4 346/4/4
f 344/4/4 345/4/4 346/4/4
f 346/4/4 345/4/4 347/4/4
f 351/4/5 349/4/5 348/4/5
f 352/4/5 349/4/5 351/4/5
f 355/6/5 351/6/5 350/6/5
f 356/4/5 353/4/5 352/4/5
f 356/4/5 352/4/5 351/4/5
f 356/6/5 351/6/5 355/6/5
f 357/4/5 353/4/5 356/4/5
f 360/4/5 355/4/5 354/4/5
f 360/4/5 358/4/5 357/4/5
f 360/4/5 357/4/5 356/4/5
f 360/4/5 356/4/5 355/4/5
f 361/4/5 358/4/5 360/4/5
f 363/4/5 360/4/5 359/4/5
f 363/4/5 362/4/5 361/4/5
f 363/4/5 361/4/5 360/4/5
f 364/4/5 362/4/5 363/4/5
f 365/4/5 362/4/5 364/4/5
f 366/4/5 362/4/5 365/4/5
f 367/4/5 362/4/5 366/4/5
f 368/4/5 365/4/5 364/4/5
f 369/4/5 365/4/5 368/4/5
f 370/4/5 365/4/5 369/4/5
f 371/6/5 366/6/5 365/6/5
f 371/4/5 365/4/5 370/4/5
f 372/6/5 366/6/5 371/6/5
f 373/6/5 370/6/5 369/6/5
f 374/4/5 371/4/5 370/4/5
f 374/6/5 370/6/5 373/6/5
f 375/4/5 371/4/5 374/4/5
f 376/4/5 371/4/5 375/4/5
f 377/4/5 371/4/5 376/4/5
f 378/6/5 375/6/5 374/6/5
f 379/4/5 376/4/5 375/4/5
f 379/6/5 375/6/5 378/6/5
f 380/4/5 376/4/5 379/4/5
f 385/5/5 382/5/5 381/5/5
f 386/5/5 382/5/5 385/5/5
f 387/5/5 384/5/5 383/5/5
f 388/5/5 384/5/5 387/5/5
f 389/4/6 390/4/6 393/4/6
f 390/6/6 391/6/6 394/6/6
f 393/4/6 390/4/6 394/4/6
f 394/6/6 391/6/6 395/6/6
f 392/4/6 393/4/6 398/4/6
f 398/4/6 393/4/6 399/4/6
f 395/6/6 396/6/6 400/6/6
f 400/6/6 396/6/6 401/6/6
f 397/6/6 398/6/6 404/6/6
f 404/6/6 398/6/6 405/6/6
f 401/6/6 402/6/6 406/6/6
f 406/6/6 402/6/6 407/6/6
f 403/4/6 404/4/6 409/4/6
f 409/4/6 404/4/6 410/4/6
f 409/6/6 410/6/6 411/6/6
f 411/6/6 410/6/6 412/6/6
f 407/6/6 408/6/6 413/6/6
f 413/6/6 408/6/6 414/6/6
f 411/4/6 412/4/6 415/4/6
f 415/4/6 412/4/6 416/4/6
f 413/4/6 414/4/6 417/4/6
f 417/4/6 414/4/6 418/4/6
f 415/6/6 416/6/6 419/6/6
f 415/6/6 419/6/6 420/6/6
f 420/6/6 419/6/6 421/6/6
f 417/6/6 418/6/6 424/6/6
f 424/6/6 418/6/6 425/6/6
f 421/6/6 422/6/6 426/6/6
f 426/6/6 422/6/6 427/6/6
f 423/4/6 424/4/6 430/4/6
f 430/4/6 424/4/6 431/4/6
f 427/6/6 428/6/6 432/6/6
f 432/6/6 428/6/6 433/6/6
f 429/4/6 430/4/6 438/4/6
f 438/4/6 430/4/6 439/4/6
f 433/4/6 434/4/6 440/4/6
f 434/6/6 435/6/6 441/6/6
f 440/4/6 434/4/6 441/4/6
f 435/6/6 436/6/6 441/6/6
f 436/4/6 437/4/6 442/4/6
f 441/6/6 436/6/6 442/6/6
f 437/4/6 438/4/6 442/4/6
f 442/4/6 438/4/6 443/4/6
f 444/6/6 445/6/6 447/6/6
f 447/6/6 445/6/6 448/6/6
f 446/4/6 447/4/6 451/4/6
f 448/4/6 449/4/6 451/4/6
f 447/4/6 448/4/6 451/4/6
f 451/4/6 449/4/6 452/4/6
f 452/4/6 449/4/6 453/4/6
f 453/4/6 449/4/6 454/4/6
f 450/4/6 451/4/6 456/4/6
f 451/4/6 452/4/6 456/4/6
f 456/4/6 452/4/6 457/4/6
f 452/6/6 453/6/6 458/6/6
f 457/4/6 452/4/6 458/4/6
f 454/4/6 455/4/6 459/4/6
f 458/6/6 453/6/6 459/6/6
f 453/4/6 454/4/6 459/4/6
f 457/4/6 458/4/6 460/4/6
f 456/6/6 457/6/6 460/6/6
f 458/4/6 459/4/6 460/4/6
f 460/4/6 459/4/6 461/4/6
f 461/4/6 459/4/6 462/4/6
f 462/4/6 459/4/6 463/4/6
f 456/6/6 460/6/6 464/6/6
f 460/6/6 461/6/6 464/6/6
f 461/4/6 462/4/6 465/4/6
f 464/6/6 461/6/6 465/6/6
f 465/4/6 462/4/6 466/4/6
f 463/4/6 459/4/6 467/4/6
f 465/4/6 466/4/6 468/4/6
f 466/4/6 467/4/6 468/4/6
f 464/4/6 465/4/6 468/4/6
f 468/4/6 467/4/6 469/4/6
f 469/4/6 467/4/6 470/4/6
f 459/4/6 455/4/6 471/4/6
f 470/4/6 467/4/6 471/4/6
f 467/4/6 459/4/6 471/4/6
f 468/6/6 469/6/6 472/6/6
f 469/4/6 470/4/6 473/4/6
f 472/6/6 469/6/6 473/6/6
f 470/6/6 471/6/6 474/6/6
f 473/4/6 470/4/6 474/4/6
f 471/4/6 455/4/6 475/4/6
f 474/6/6 471/6/6 475/6/6
f 475/4/6 455/4/6 476/4/6
f 476/4/6 455/4/6 477/4/6
f 473/6/6 474/6/6 478/6/6
f 478/6/6 474/6/6 479/6/6
f 475/4/6 476/4/6 480/4/6
f 479/6/6 474/6/6 480/6/6
f 474/4/6 475/4/6 480/4/6
f 480/4/6 476/4/6 481/4/6
f 481/4/6 476/4/6 482/4/6
f 482/4/6 476/4/6 483/4/6
f 483/4/6 476/4/6 484/4/6
f 484/4/6 476/4/6 485/4/6
f 479/4/6 480/4/6 486/4/6
f 480/4/6 481/4/6 486/4/6
f 481/6/6 482/6/6 487/6/6
f 486/4/6 481/4/6 487/4/6
f 482/4/6 483/4/6 488/4/6
f 487/6/6 482/6/6 488/6/6
f 483/6/6 484/6/6 489/6/6
f 488/4/6 483/4/6 489/4/6
f 489/6/6 484/6/6 490/6/6
f 491/5/6 492/5/6 495/5/6
f 495/5/6 492/5/6 496/5/6
f 493/5/6 494/5/6 497/5/6
f 497/5/6 494/5/6 498/5/6
f 499/1/6 500/1/6 501/1/6
f 501/1/6 500/1/6 502/1/6
