# Blender v2.91.2 OBJ File: ''
# www.blender.org
mtllib foot.mtl
o Rfoot_Cube.005
v 0.652471 0.361341 -0.406252
v 0.589623 0.148423 -0.900598
v 0.692636 0.361341 0.068071
v 0.692741 0.148423 0.068176
v 0.247303 0.361341 -0.405476
v 0.303099 0.148423 -0.900598
v 0.249013 0.361341 0.061342
v 0.248446 0.148423 0.068176
v 0.589623 0.235409 -0.900598
v 0.303099 0.235409 -0.900598
v 0.652992 0.361341 -0.406252
v 0.247303 0.361341 -0.405476
v 0.303099 0.120138 -0.900598
v 0.248446 0.120138 0.068176
v 0.589623 0.120138 -0.900598
v 0.692741 0.120138 0.068176
vt 0.625000 0.500000
vt 0.875000 0.500000
vt 0.875000 0.750000
vt 0.625000 0.750000
vt 0.375000 0.750000
vt 0.625000 1.000000
vt 0.375000 1.000000
vt 0.375000 0.500000
vt 0.375000 0.500000
vt 0.625000 0.500000
vt 0.375000 1.000000
vt 0.375000 0.750000
vt 0.375000 0.250000
vt 0.625000 0.250000
vt 0.125000 0.500000
vt 0.125000 0.500000
vt 0.875000 0.500000
vt 0.125000 0.500000
vt 0.375000 0.500000
vt 0.125000 0.750000
vt 0.375000 0.000000
vt 0.375000 0.250000
vt 0.375000 0.250000
vt 0.375000 0.000000
vt 0.625000 0.250000
vt 0.625000 0.000000
vn 0.0000 1.0000 0.0000
vn -0.0076 0.0163 0.9998
vn 0.9944 -0.0287 -0.1019
vn 0.0000 0.0000 1.0000
vn -0.0003 0.9691 -0.2467
vn 0.0000 0.0000 -1.0000
vn 0.0000 -1.0000 0.0000
vn 0.9944 0.0000 -0.1058
vn -0.9984 0.0000 -0.0563
vn -0.9960 -0.0763 -0.0461
usemtl Material.005
s off
f 1/1/1 5/2/1 7/3/1 3/4/1
f 4/5/2 3/4/2 7/6/2 8/7/2
f 2/8/3 9/9/3 11/10/3 1/1/3 3/4/3 4/5/3
f 4/5/4 8/7/4 14/11/4 16/12/4
f 10/13/5 12/14/5 11/10/5 9/9/5
f 2/8/6 6/15/6 10/16/6 9/9/6
f 5/2/7 1/1/7 11/10/7 12/17/7
f 13/18/7 15/19/7 16/12/7 14/20/7
f 6/15/6 2/8/6 15/19/6 13/18/6
f 2/8/8 4/5/8 16/12/8 15/19/8
f 8/21/9 6/22/9 13/23/9 14/24/9
f 5/25/10 12/14/10 10/13/10 6/22/10 8/21/10 7/26/10
