# Blender v2.91.2 OBJ File: ''
# www.blender.org
mtllib legtop.mtl
o Rlegtop_Cube
v 0.798696 2.818302 -0.501591
v 0.744742 2.237662 -0.546342
v 0.798696 2.818302 0.393960
v 0.744742 2.237662 0.146900
v -0.026045 2.818302 -0.681682
v 0.125141 2.237662 -0.546342
v -0.026045 2.818302 0.482108
v 0.125141 2.237662 0.146900
vt 0.625000 0.500000
vt 0.875000 0.500000
vt 0.875000 0.750000
vt 0.625000 0.750000
vt 0.375000 0.750000
vt 0.625000 1.000000
vt 0.375000 1.000000
vt 0.375000 0.000000
vt 0.625000 0.000000
vt 0.625000 0.250000
vt 0.375000 0.250000
vt 0.125000 0.500000
vt 0.375000 0.500000
vt 0.125000 0.750000
vn 0.0000 1.0000 0.0000
vn 0.0546 -0.4439 0.8944
vn -0.9677 -0.2520 0.0000
vn 0.0000 -1.0000 0.0000
vn 0.9957 -0.0925 0.0000
vn 0.1235 -0.0669 -0.9901
usemtl Material
s off
f 1/1/1 5/2/1 7/3/1 3/4/1
f 4/5/2 3/4/2 7/6/2 8/7/2
f 8/8/3 7/9/3 5/10/3 6/11/3
f 6/12/4 2/13/4 4/5/4 8/14/4
f 2/13/5 1/1/5 3/4/5 4/5/5
f 6/11/6 5/10/6 1/1/6 2/13/6
