# Blender v2.91.2 OBJ File: ''
# www.blender.org
mtllib neck.mtl
o neck_Cube.018
v 0.330956 5.371164 -0.476639
v 0.330956 5.371164 -0.124822
v -0.330956 5.371164 -0.476639
v -0.330956 5.371164 -0.124822
v 0.806074 5.231246 -0.502543
v -0.796242 5.231246 0.119552
v 0.797283 5.231246 0.127548
v -0.803781 5.231246 -0.499110
v 0.000000 5.371164 -0.104447
v 0.000000 5.371164 -0.579588
v 0.000000 5.231246 -0.683527
v 0.000000 5.231246 0.156809
vt 0.750000 0.500000
vt 0.875000 0.500000
vt 0.875000 0.750000
vt 0.750000 0.750000
vt 0.500000 0.875000
vt 0.625000 0.875000
vt 0.625000 1.000000
vt 0.500000 1.000000
vt 0.500000 0.000000
vt 0.625000 0.000000
vt 0.625000 0.250000
vt 0.500000 0.250000
vt 0.500000 0.500000
vt 0.625000 0.500000
vt 0.625000 0.750000
vt 0.500000 0.750000
vt 0.500000 0.375000
vt 0.625000 0.375000
vn 0.0000 1.0000 0.0000
vn -0.0239 0.8838 0.4672
vn -0.2854 0.9584 0.0022
vn 0.2844 0.9587 0.0025
vn 0.1836 0.6527 -0.7350
vn 0.0000 -1.0000 0.0000
vn -0.1868 0.6488 -0.7376
vn 0.0204 0.8856 0.4640
usemtl Material.018
s off
f 10/1/1 3/2/1 4/3/1 9/4/1
f 12/5/2 9/6/2 4/7/2 6/8/2
f 6/9/3 4/10/3 3/11/3 8/12/3
f 5/13/4 1/14/4 2/15/4 7/16/4
f 11/17/5 10/18/5 1/14/5 5/13/5
f 8/12/6 11/17/6 5/13/6 7/16/6 12/5/6 6/9/6
f 8/12/7 3/11/7 10/18/7 11/17/7
f 7/16/8 2/15/8 9/6/8 12/5/8
f 1/14/1 10/1/1 9/4/1 2/15/1
o neck.001_Cube.039
v 0.330956 5.375000 -0.476639
v 0.330956 5.375000 -0.124822
v -0.330956 5.375000 -0.476639
v -0.330956 5.375000 -0.124822
v 0.306074 5.672056 -0.654041
v -0.296242 5.672056 -0.203230
v 0.297283 5.672056 -0.195234
v -0.303781 5.672056 -0.650608
v 0.000000 5.239944 0.038464
v 0.000000 5.375000 -0.579588
v 0.000000 5.672056 -0.682462
v 0.000000 5.672056 -0.165972
vt 0.750000 0.500000
vt 0.750000 0.750000
vt 0.875000 0.750000
vt 0.875000 0.500000
vt 0.500000 0.875000
vt 0.500000 1.000000
vt 0.625000 1.000000
vt 0.625000 0.875000
vt 0.500000 0.000000
vt 0.500000 0.250000
vt 0.625000 0.250000
vt 0.625000 0.000000
vt 0.500000 0.500000
vt 0.500000 0.750000
vt 0.625000 0.750000
vt 0.625000 0.500000
vt 0.500000 0.375000
vt 0.625000 0.375000
vn -0.1862 -0.9731 -0.1355
vn -0.2122 0.3622 0.9076
vn -0.9942 0.1075 0.0094
vn 0.9947 0.1025 0.0108
vn 0.1839 -0.4131 -0.8919
vn 0.0000 1.0000 0.0000
vn -0.1897 -0.4076 -0.8933
vn 0.2038 0.3535 0.9129
vn 0.1862 -0.9731 -0.1355
usemtl Material.031
s off
f 22/19/9 21/20/9 16/21/9 15/22/9
f 24/23/10 18/24/10 16/25/10 21/26/10
f 18/27/11 20/28/11 15/29/11 16/30/11
f 17/31/12 19/32/12 14/33/12 13/34/12
f 23/35/13 17/31/13 13/34/13 22/36/13
f 20/28/14 18/27/14 24/23/14 19/32/14 17/31/14 23/35/14
f 20/28/15 23/35/15 22/36/15 15/29/15
f 19/32/16 24/23/16 21/26/16 14/33/16
f 13/34/17 14/33/17 21/20/17 22/19/17
