# Blender v2.91.2 OBJ File: ''
# www.blender.org
mtllib rarmtop.mtl
o Rarmtop_Cube.011
v 1.077085 5.366717 -0.502675
v 2.314207 5.476506 -0.269503
v 1.089433 5.367916 0.127270
v 2.314207 5.425642 0.162010
v 1.212018 4.892252 -0.497031
v 2.314207 4.958819 -0.269503
v 1.206747 4.900901 0.122732
v 2.314207 4.958819 0.203098
vt 0.625000 0.500000
vt 0.875000 0.500000
vt 0.875000 0.750000
vt 0.625000 0.750000
vt 0.375000 0.750000
vt 0.625000 1.000000
vt 0.375000 1.000000
vt 0.375000 0.000000
vt 0.625000 0.000000
vt 0.625000 0.250000
vt 0.375000 0.250000
vt 0.125000 0.500000
vt 0.375000 0.500000
vt 0.125000 0.750000
vn -0.9659 -0.2588 0.0075
vn -0.0509 0.0327 0.9982
vn 0.0551 -0.9984 0.0082
vn 1.0000 -0.0000 0.0000
vn -0.0730 0.9962 0.0475
vn 0.1917 0.0205 -0.9812
usemtl Material.011
s off
f 1/1/1 5/2/1 7/3/1 3/4/1
f 4/5/2 3/4/2 7/6/2 8/7/2
f 8/8/3 7/9/3 5/10/3 6/11/3
f 6/12/4 2/13/4 4/5/4 8/14/4
f 2/13/5 1/1/5 3/4/5 4/5/5
f 6/11/6 5/10/6 1/1/6 2/13/6
