# Blender v2.91.2 OBJ File: ''
# www.blender.org
mtllib rarmmid.mtl
o Rarmmid_Cube.012
v 3.535269 5.302811 -0.527637
v 2.310714 5.476506 -0.269503
v 3.535488 5.367915 -0.134836
v 2.310714 5.425642 0.162010
v 3.469267 4.965549 -0.526931
v 2.310714 4.958819 -0.269503
v 3.418174 4.900901 -0.139374
v 2.310714 4.958819 0.203098
vt 0.625000 0.500000
vt 0.625000 0.750000
vt 0.875000 0.750000
vt 0.875000 0.500000
vt 0.375000 0.750000
vt 0.375000 1.000000
vt 0.625000 1.000000
vt 0.375000 0.000000
vt 0.375000 0.250000
vt 0.625000 0.250000
vt 0.625000 0.000000
vt 0.125000 0.500000
vt 0.125000 0.750000
vt 0.375000 0.500000
vn 0.9730 -0.2221 0.0636
vn 0.2646 0.0045 0.9644
vn -0.0430 -0.9961 -0.0774
vn -1.0000 0.0000 0.0000
vn 0.0902 0.9958 -0.0172
vn -0.2104 0.0154 -0.9775
usemtl Material.012
s off
f 1/1/1 3/2/1 7/3/1 5/4/1
f 4/5/2 8/6/2 7/7/2 3/2/2
f 8/8/3 6/9/3 5/10/3 7/11/3
f 6/12/4 8/13/4 4/5/4 2/14/4
f 2/14/5 4/5/5 3/2/5 1/1/5
f 6/9/6 2/14/6 1/1/6 5/10/6
