# Blender v2.91.2 OBJ File: ''
# www.blender.org
mtllib rhand.mtl
o Rhand_Cube.013
v 3.529829 5.302811 -0.520569
v 4.141047 5.229006 -0.457943
v 3.529609 5.367916 -0.127768
v 4.141047 5.201838 -0.207102
v 3.476363 4.965549 -0.519863
v 4.141047 5.195958 -0.502522
v 3.419218 4.900901 -0.132306
v 4.141047 5.167280 -0.229145
v 3.747666 5.305290 -0.577328
v 3.692360 5.120721 -0.131372
v 3.747556 5.345407 -0.118081
v 3.720933 5.161663 -0.599265
v 3.944356 5.306530 -0.517636
v 3.944301 5.313004 -0.162592
v 3.930990 5.218192 -0.550893
v 3.916703 5.167955 -0.180259
vt 0.625000 0.500000
vt 0.875000 0.500000
vt 0.875000 0.750000
vt 0.625000 0.750000
vt 0.500000 0.750000
vt 0.625000 1.000000
vt 0.500000 1.000000
vt 0.500000 0.000000
vt 0.625000 0.000000
vt 0.625000 0.250000
vt 0.500000 0.250000
vt 0.125000 0.500000
vt 0.375000 0.500000
vt 0.375000 0.750000
vt 0.125000 0.750000
vt 0.500000 0.500000
vt 0.437500 0.250000
vt 0.437500 0.500000
vt 0.437500 0.750000
vt 0.437500 0.000000
vt 0.437500 1.000000
vt 0.375000 1.000000
vt 0.375000 0.000000
vt 0.375000 0.250000
vn -0.9773 0.1994 -0.0720
vn -0.0125 -0.0228 0.9997
vn 0.6228 -0.7816 -0.0341
vn 1.0000 -0.0000 0.0000
vn 0.0324 0.9919 -0.1225
vn -0.3184 0.0947 -0.9432
vn 0.2271 0.1881 -0.9555
vn 0.0810 0.9951 -0.0569
vn 0.2312 -0.9684 -0.0935
vn 0.2191 -0.1300 0.9670
vn 0.1504 -0.2354 0.9602
vn -0.0524 -0.9911 -0.1226
vn 0.4313 0.9017 0.0308
vn 0.3335 0.4826 -0.8099
usemtl Material.013
s off
f 1/1/1 5/2/1 7/3/1 3/4/1
f 11/5/2 3/4/2 7/6/2 10/7/2
f 10/8/3 7/9/3 5/10/3 12/11/3
f 6/12/4 2/13/4 4/14/4 8/15/4
f 9/16/5 1/1/5 3/4/5 11/5/5
f 12/11/6 5/10/6 1/1/6 9/16/6
f 15/17/7 12/11/7 9/16/7 13/18/7
f 13/18/8 9/16/8 11/5/8 14/19/8
f 16/20/9 10/8/9 12/11/9 15/17/9
f 14/19/10 11/5/10 10/7/10 16/21/10
f 4/14/11 14/19/11 16/21/11 8/22/11
f 8/23/12 16/20/12 15/17/12 6/24/12
f 2/13/13 13/18/13 14/19/13 4/14/13
f 6/24/14 15/17/14 13/18/14 2/13/14
