# Blender v2.91.2 OBJ File: 'person.blend'
# www.blender.org
mtllib rlegbotton.mtl
o Rlegbottom_Cube.004
v 0.707805 1.382824 -0.495918
v 0.651975 0.359229 -0.404311
v 0.745353 1.382824 -0.004148
v 0.689998 0.359229 0.068176
v 0.189612 1.382824 -0.501193
v 0.248446 0.359229 -0.404311
v 0.189132 1.382824 -0.004189
v 0.248446 0.359229 0.068176
vt 0.625000 0.500000
vt 0.875000 0.500000
vt 0.875000 0.750000
vt 0.625000 0.750000
vt 0.375000 0.750000
vt 0.625000 1.000000
vt 0.375000 1.000000
vt 0.375000 0.000000
vt 0.625000 0.000000
vt 0.625000 0.250000
vt 0.375000 0.250000
vt 0.125000 0.500000
vt 0.375000 0.500000
vt 0.125000 0.750000
vn 0.0000 1.0000 0.0000
vn -0.0000 0.0705 0.9975
vn -0.9983 -0.0577 -0.0005
vn 0.0000 -1.0000 0.0000
vn 0.9951 -0.0603 -0.0780
vn 0.0057 -0.0917 -0.9958
usemtl Material.004
s off
f 1/1/1 5/2/1 7/3/1 3/4/1
f 4/5/2 3/4/2 7/6/2 8/7/2
f 8/8/3 7/9/3 5/10/3 6/11/3
f 6/12/4 2/13/4 4/5/4 8/14/4
f 2/13/5 1/1/5 3/4/5 4/5/5
f 6/11/6 5/10/6 1/1/6 2/13/6
