# Blender v2.91.2 OBJ File: ''
# www.blender.org
mtllib torso.mtl
o torso_Cube.001
v 0.800000 5.229369 -0.500000
v 0.800000 5.229369 0.127186
v -0.800000 5.229369 -0.500000
v -0.800000 5.229369 0.127186
v 0.941862 4.790669 -0.500000
v -0.941862 4.790669 0.215953
v 0.941862 4.790669 0.127186
v -0.941862 4.790669 -0.500000
v 0.688636 3.623740 -0.500000
v 0.688636 3.579353 0.215953
v -0.688636 3.623740 -0.500000
v -0.688636 3.579353 0.215953
v 0.000000 5.229369 0.163509
v 0.000000 5.229369 -0.683527
v 0.000000 4.790669 -0.683527
v 0.000000 4.790669 0.214333
v 0.000000 3.579353 0.265156
v 0.000000 3.623740 -0.683527
vt 0.750000 0.500000
vt 0.875000 0.500000
vt 0.875000 0.750000
vt 0.750000 0.750000
vt 0.500000 0.875000
vt 0.625000 0.875000
vt 0.625000 1.000000
vt 0.500000 1.000000
vt 0.500000 0.000000
vt 0.625000 0.000000
vt 0.625000 0.250000
vt 0.500000 0.250000
vt 0.500000 0.500000
vt 0.625000 0.500000
vt 0.625000 0.750000
vt 0.500000 0.750000
vt 0.500000 0.375000
vt 0.625000 0.375000
vt 0.437500 0.375000
vt 0.437500 0.500000
vt 0.437500 0.750000
vt 0.437500 0.000000
vt 0.437500 0.250000
vt 0.437500 0.875000
vt 0.437500 1.000000
vn 0.0000 1.0000 0.0000
vn -0.0197 0.1602 0.9869
vn -0.9515 0.3077 0.0000
vn 0.9515 0.3077 0.0000
vn 0.2061 0.0333 -0.9780
vn 0.2196 -0.0238 -0.9753
vn 0.9780 -0.2085 -0.0069
vn -0.9780 -0.2083 -0.0065
vn -0.0292 0.0179 0.9994
vn 0.0000 -0.9986 -0.0533
vn 0.0832 0.0487 0.9953
vn -0.2196 -0.0238 -0.9753
vn -0.2061 0.0333 -0.9780
vn 0.0705 0.0690 0.9951
usemtl Material.001
s off
f 14/1/1 3/2/1 4/3/1 13/4/1
f 16/5/2 13/6/2 4/7/2 6/8/2
f 6/9/3 4/10/3 3/11/3 8/12/3
f 5/13/4 1/14/4 2/15/4 7/16/4
f 15/17/5 14/18/5 1/14/5 5/13/5
f 18/19/6 15/17/6 5/13/6 9/20/6
f 9/20/7 5/13/7 7/16/7 10/21/7
f 12/22/8 6/9/8 8/12/8 11/23/8
f 17/24/9 16/5/9 6/8/9 12/25/9
f 17/24/10 12/22/10 11/23/10 18/19/10 9/20/10 10/21/10
f 10/21/11 7/16/11 16/5/11 17/24/11
f 11/23/12 8/12/12 15/17/12 18/19/12
f 8/12/13 3/11/13 14/18/13 15/17/13
f 7/16/14 2/15/14 13/6/14 16/5/14
f 1/14/1 14/1/1 13/4/1 2/15/1
